%
M48
M72
T01C0.03937
T02C0.04000
T03C0.04331
T04C0.04724
T05C0.05000
T06C0.05118
T07C0.05512
T08C0.07000
T09C0.12598
%
T01
X46000Y76000
X36000Y76000
X26000Y76000
X56000Y76000
X66000Y76000
X66000Y156000
X56000Y156000
X46000Y156000
X36000Y156000
X26000Y156000
T02
X111000Y11000
X121000Y11000
X131000Y11000
X141000Y11000
X151000Y11000
X161000Y11000
X171000Y11000
X181000Y11000
X201000Y11000
X211000Y11000
X221000Y11000
X231000Y11000
X241000Y11000
X251000Y11000
X251000Y201000
X241000Y201000
X231000Y201000
X221000Y201000
X211000Y201000
X201000Y201000
X191000Y201000
X181000Y201000
X166000Y201000
X156000Y201000
X146000Y201000
X136000Y201000
X126000Y201000
X116000Y201000
X106000Y201000
X96000Y201000
X86000Y201000
X76000Y201000
X38800Y194900
X38800Y177100
X13200Y177100
X13200Y194900
T03
X216000Y156000
X216000Y56000
T04
X136000Y61000
X136000Y151000
X251000Y121000
X261000Y121000
X261000Y111000
X251000Y111000
X251000Y101000
X261000Y101000
T05
X186000Y106000
T06
X123800Y163200
X148200Y163200
X148200Y138800
X123800Y138800
X123800Y73200
X148200Y73200
X148200Y48800
X123800Y48800
T07
X206000Y166000
X226000Y166000
X226000Y146000
X206000Y146000
X226000Y66000
X206000Y66000
X206000Y46000
X226000Y46000
T08
X175961Y95961
X196039Y95961
X196039Y116039
X175961Y116039
T09
X61000Y201000
X261000Y141000
X261000Y31000
X56000Y11000
M30
