G75*
%MOIN*%
%OFA0B0*%
%FSLAX25Y25*%
%IPPOS*%
%LPD*%
%AMOC8*
5,1,8,0,0,1.08239X$1,22.5*
%
%ADD10C,0.00000*%
%ADD11C,0.00300*%
%ADD12C,0.00600*%
%ADD13C,0.00800*%
%ADD14R,0.02000X0.02000*%
%ADD15C,0.00500*%
%ADD16C,0.01200*%
%ADD17C,0.01000*%
%ADD18C,0.00200*%
%ADD19C,0.04000*%
D10*
X0001000Y0001000D02*
X0001000Y0211000D01*
X0255000Y0211000D01*
X0261000Y0204500D01*
X0261000Y0161000D01*
X0271000Y0151000D01*
X0271000Y0021000D01*
X0261000Y0011000D01*
X0261000Y0001000D01*
X0001000Y0001000D01*
X0049701Y0011000D02*
X0049703Y0011158D01*
X0049709Y0011316D01*
X0049719Y0011474D01*
X0049733Y0011632D01*
X0049751Y0011789D01*
X0049772Y0011946D01*
X0049798Y0012102D01*
X0049828Y0012258D01*
X0049861Y0012413D01*
X0049899Y0012566D01*
X0049940Y0012719D01*
X0049985Y0012871D01*
X0050034Y0013022D01*
X0050087Y0013171D01*
X0050143Y0013319D01*
X0050203Y0013465D01*
X0050267Y0013610D01*
X0050335Y0013753D01*
X0050406Y0013895D01*
X0050480Y0014035D01*
X0050558Y0014172D01*
X0050640Y0014308D01*
X0050724Y0014442D01*
X0050813Y0014573D01*
X0050904Y0014702D01*
X0050999Y0014829D01*
X0051096Y0014954D01*
X0051197Y0015076D01*
X0051301Y0015195D01*
X0051408Y0015312D01*
X0051518Y0015426D01*
X0051631Y0015537D01*
X0051746Y0015646D01*
X0051864Y0015751D01*
X0051985Y0015853D01*
X0052108Y0015953D01*
X0052234Y0016049D01*
X0052362Y0016142D01*
X0052492Y0016232D01*
X0052625Y0016318D01*
X0052760Y0016402D01*
X0052896Y0016481D01*
X0053035Y0016558D01*
X0053176Y0016630D01*
X0053318Y0016700D01*
X0053462Y0016765D01*
X0053608Y0016827D01*
X0053755Y0016885D01*
X0053904Y0016940D01*
X0054054Y0016991D01*
X0054205Y0017038D01*
X0054357Y0017081D01*
X0054510Y0017120D01*
X0054665Y0017156D01*
X0054820Y0017187D01*
X0054976Y0017215D01*
X0055132Y0017239D01*
X0055289Y0017259D01*
X0055447Y0017275D01*
X0055604Y0017287D01*
X0055763Y0017295D01*
X0055921Y0017299D01*
X0056079Y0017299D01*
X0056237Y0017295D01*
X0056396Y0017287D01*
X0056553Y0017275D01*
X0056711Y0017259D01*
X0056868Y0017239D01*
X0057024Y0017215D01*
X0057180Y0017187D01*
X0057335Y0017156D01*
X0057490Y0017120D01*
X0057643Y0017081D01*
X0057795Y0017038D01*
X0057946Y0016991D01*
X0058096Y0016940D01*
X0058245Y0016885D01*
X0058392Y0016827D01*
X0058538Y0016765D01*
X0058682Y0016700D01*
X0058824Y0016630D01*
X0058965Y0016558D01*
X0059104Y0016481D01*
X0059240Y0016402D01*
X0059375Y0016318D01*
X0059508Y0016232D01*
X0059638Y0016142D01*
X0059766Y0016049D01*
X0059892Y0015953D01*
X0060015Y0015853D01*
X0060136Y0015751D01*
X0060254Y0015646D01*
X0060369Y0015537D01*
X0060482Y0015426D01*
X0060592Y0015312D01*
X0060699Y0015195D01*
X0060803Y0015076D01*
X0060904Y0014954D01*
X0061001Y0014829D01*
X0061096Y0014702D01*
X0061187Y0014573D01*
X0061276Y0014442D01*
X0061360Y0014308D01*
X0061442Y0014172D01*
X0061520Y0014035D01*
X0061594Y0013895D01*
X0061665Y0013753D01*
X0061733Y0013610D01*
X0061797Y0013465D01*
X0061857Y0013319D01*
X0061913Y0013171D01*
X0061966Y0013022D01*
X0062015Y0012871D01*
X0062060Y0012719D01*
X0062101Y0012566D01*
X0062139Y0012413D01*
X0062172Y0012258D01*
X0062202Y0012102D01*
X0062228Y0011946D01*
X0062249Y0011789D01*
X0062267Y0011632D01*
X0062281Y0011474D01*
X0062291Y0011316D01*
X0062297Y0011158D01*
X0062299Y0011000D01*
X0062297Y0010842D01*
X0062291Y0010684D01*
X0062281Y0010526D01*
X0062267Y0010368D01*
X0062249Y0010211D01*
X0062228Y0010054D01*
X0062202Y0009898D01*
X0062172Y0009742D01*
X0062139Y0009587D01*
X0062101Y0009434D01*
X0062060Y0009281D01*
X0062015Y0009129D01*
X0061966Y0008978D01*
X0061913Y0008829D01*
X0061857Y0008681D01*
X0061797Y0008535D01*
X0061733Y0008390D01*
X0061665Y0008247D01*
X0061594Y0008105D01*
X0061520Y0007965D01*
X0061442Y0007828D01*
X0061360Y0007692D01*
X0061276Y0007558D01*
X0061187Y0007427D01*
X0061096Y0007298D01*
X0061001Y0007171D01*
X0060904Y0007046D01*
X0060803Y0006924D01*
X0060699Y0006805D01*
X0060592Y0006688D01*
X0060482Y0006574D01*
X0060369Y0006463D01*
X0060254Y0006354D01*
X0060136Y0006249D01*
X0060015Y0006147D01*
X0059892Y0006047D01*
X0059766Y0005951D01*
X0059638Y0005858D01*
X0059508Y0005768D01*
X0059375Y0005682D01*
X0059240Y0005598D01*
X0059104Y0005519D01*
X0058965Y0005442D01*
X0058824Y0005370D01*
X0058682Y0005300D01*
X0058538Y0005235D01*
X0058392Y0005173D01*
X0058245Y0005115D01*
X0058096Y0005060D01*
X0057946Y0005009D01*
X0057795Y0004962D01*
X0057643Y0004919D01*
X0057490Y0004880D01*
X0057335Y0004844D01*
X0057180Y0004813D01*
X0057024Y0004785D01*
X0056868Y0004761D01*
X0056711Y0004741D01*
X0056553Y0004725D01*
X0056396Y0004713D01*
X0056237Y0004705D01*
X0056079Y0004701D01*
X0055921Y0004701D01*
X0055763Y0004705D01*
X0055604Y0004713D01*
X0055447Y0004725D01*
X0055289Y0004741D01*
X0055132Y0004761D01*
X0054976Y0004785D01*
X0054820Y0004813D01*
X0054665Y0004844D01*
X0054510Y0004880D01*
X0054357Y0004919D01*
X0054205Y0004962D01*
X0054054Y0005009D01*
X0053904Y0005060D01*
X0053755Y0005115D01*
X0053608Y0005173D01*
X0053462Y0005235D01*
X0053318Y0005300D01*
X0053176Y0005370D01*
X0053035Y0005442D01*
X0052896Y0005519D01*
X0052760Y0005598D01*
X0052625Y0005682D01*
X0052492Y0005768D01*
X0052362Y0005858D01*
X0052234Y0005951D01*
X0052108Y0006047D01*
X0051985Y0006147D01*
X0051864Y0006249D01*
X0051746Y0006354D01*
X0051631Y0006463D01*
X0051518Y0006574D01*
X0051408Y0006688D01*
X0051301Y0006805D01*
X0051197Y0006924D01*
X0051096Y0007046D01*
X0050999Y0007171D01*
X0050904Y0007298D01*
X0050813Y0007427D01*
X0050724Y0007558D01*
X0050640Y0007692D01*
X0050558Y0007828D01*
X0050480Y0007965D01*
X0050406Y0008105D01*
X0050335Y0008247D01*
X0050267Y0008390D01*
X0050203Y0008535D01*
X0050143Y0008681D01*
X0050087Y0008829D01*
X0050034Y0008978D01*
X0049985Y0009129D01*
X0049940Y0009281D01*
X0049899Y0009434D01*
X0049861Y0009587D01*
X0049828Y0009742D01*
X0049798Y0009898D01*
X0049772Y0010054D01*
X0049751Y0010211D01*
X0049733Y0010368D01*
X0049719Y0010526D01*
X0049709Y0010684D01*
X0049703Y0010842D01*
X0049701Y0011000D01*
X0254701Y0031000D02*
X0254703Y0031158D01*
X0254709Y0031316D01*
X0254719Y0031474D01*
X0254733Y0031632D01*
X0254751Y0031789D01*
X0254772Y0031946D01*
X0254798Y0032102D01*
X0254828Y0032258D01*
X0254861Y0032413D01*
X0254899Y0032566D01*
X0254940Y0032719D01*
X0254985Y0032871D01*
X0255034Y0033022D01*
X0255087Y0033171D01*
X0255143Y0033319D01*
X0255203Y0033465D01*
X0255267Y0033610D01*
X0255335Y0033753D01*
X0255406Y0033895D01*
X0255480Y0034035D01*
X0255558Y0034172D01*
X0255640Y0034308D01*
X0255724Y0034442D01*
X0255813Y0034573D01*
X0255904Y0034702D01*
X0255999Y0034829D01*
X0256096Y0034954D01*
X0256197Y0035076D01*
X0256301Y0035195D01*
X0256408Y0035312D01*
X0256518Y0035426D01*
X0256631Y0035537D01*
X0256746Y0035646D01*
X0256864Y0035751D01*
X0256985Y0035853D01*
X0257108Y0035953D01*
X0257234Y0036049D01*
X0257362Y0036142D01*
X0257492Y0036232D01*
X0257625Y0036318D01*
X0257760Y0036402D01*
X0257896Y0036481D01*
X0258035Y0036558D01*
X0258176Y0036630D01*
X0258318Y0036700D01*
X0258462Y0036765D01*
X0258608Y0036827D01*
X0258755Y0036885D01*
X0258904Y0036940D01*
X0259054Y0036991D01*
X0259205Y0037038D01*
X0259357Y0037081D01*
X0259510Y0037120D01*
X0259665Y0037156D01*
X0259820Y0037187D01*
X0259976Y0037215D01*
X0260132Y0037239D01*
X0260289Y0037259D01*
X0260447Y0037275D01*
X0260604Y0037287D01*
X0260763Y0037295D01*
X0260921Y0037299D01*
X0261079Y0037299D01*
X0261237Y0037295D01*
X0261396Y0037287D01*
X0261553Y0037275D01*
X0261711Y0037259D01*
X0261868Y0037239D01*
X0262024Y0037215D01*
X0262180Y0037187D01*
X0262335Y0037156D01*
X0262490Y0037120D01*
X0262643Y0037081D01*
X0262795Y0037038D01*
X0262946Y0036991D01*
X0263096Y0036940D01*
X0263245Y0036885D01*
X0263392Y0036827D01*
X0263538Y0036765D01*
X0263682Y0036700D01*
X0263824Y0036630D01*
X0263965Y0036558D01*
X0264104Y0036481D01*
X0264240Y0036402D01*
X0264375Y0036318D01*
X0264508Y0036232D01*
X0264638Y0036142D01*
X0264766Y0036049D01*
X0264892Y0035953D01*
X0265015Y0035853D01*
X0265136Y0035751D01*
X0265254Y0035646D01*
X0265369Y0035537D01*
X0265482Y0035426D01*
X0265592Y0035312D01*
X0265699Y0035195D01*
X0265803Y0035076D01*
X0265904Y0034954D01*
X0266001Y0034829D01*
X0266096Y0034702D01*
X0266187Y0034573D01*
X0266276Y0034442D01*
X0266360Y0034308D01*
X0266442Y0034172D01*
X0266520Y0034035D01*
X0266594Y0033895D01*
X0266665Y0033753D01*
X0266733Y0033610D01*
X0266797Y0033465D01*
X0266857Y0033319D01*
X0266913Y0033171D01*
X0266966Y0033022D01*
X0267015Y0032871D01*
X0267060Y0032719D01*
X0267101Y0032566D01*
X0267139Y0032413D01*
X0267172Y0032258D01*
X0267202Y0032102D01*
X0267228Y0031946D01*
X0267249Y0031789D01*
X0267267Y0031632D01*
X0267281Y0031474D01*
X0267291Y0031316D01*
X0267297Y0031158D01*
X0267299Y0031000D01*
X0267297Y0030842D01*
X0267291Y0030684D01*
X0267281Y0030526D01*
X0267267Y0030368D01*
X0267249Y0030211D01*
X0267228Y0030054D01*
X0267202Y0029898D01*
X0267172Y0029742D01*
X0267139Y0029587D01*
X0267101Y0029434D01*
X0267060Y0029281D01*
X0267015Y0029129D01*
X0266966Y0028978D01*
X0266913Y0028829D01*
X0266857Y0028681D01*
X0266797Y0028535D01*
X0266733Y0028390D01*
X0266665Y0028247D01*
X0266594Y0028105D01*
X0266520Y0027965D01*
X0266442Y0027828D01*
X0266360Y0027692D01*
X0266276Y0027558D01*
X0266187Y0027427D01*
X0266096Y0027298D01*
X0266001Y0027171D01*
X0265904Y0027046D01*
X0265803Y0026924D01*
X0265699Y0026805D01*
X0265592Y0026688D01*
X0265482Y0026574D01*
X0265369Y0026463D01*
X0265254Y0026354D01*
X0265136Y0026249D01*
X0265015Y0026147D01*
X0264892Y0026047D01*
X0264766Y0025951D01*
X0264638Y0025858D01*
X0264508Y0025768D01*
X0264375Y0025682D01*
X0264240Y0025598D01*
X0264104Y0025519D01*
X0263965Y0025442D01*
X0263824Y0025370D01*
X0263682Y0025300D01*
X0263538Y0025235D01*
X0263392Y0025173D01*
X0263245Y0025115D01*
X0263096Y0025060D01*
X0262946Y0025009D01*
X0262795Y0024962D01*
X0262643Y0024919D01*
X0262490Y0024880D01*
X0262335Y0024844D01*
X0262180Y0024813D01*
X0262024Y0024785D01*
X0261868Y0024761D01*
X0261711Y0024741D01*
X0261553Y0024725D01*
X0261396Y0024713D01*
X0261237Y0024705D01*
X0261079Y0024701D01*
X0260921Y0024701D01*
X0260763Y0024705D01*
X0260604Y0024713D01*
X0260447Y0024725D01*
X0260289Y0024741D01*
X0260132Y0024761D01*
X0259976Y0024785D01*
X0259820Y0024813D01*
X0259665Y0024844D01*
X0259510Y0024880D01*
X0259357Y0024919D01*
X0259205Y0024962D01*
X0259054Y0025009D01*
X0258904Y0025060D01*
X0258755Y0025115D01*
X0258608Y0025173D01*
X0258462Y0025235D01*
X0258318Y0025300D01*
X0258176Y0025370D01*
X0258035Y0025442D01*
X0257896Y0025519D01*
X0257760Y0025598D01*
X0257625Y0025682D01*
X0257492Y0025768D01*
X0257362Y0025858D01*
X0257234Y0025951D01*
X0257108Y0026047D01*
X0256985Y0026147D01*
X0256864Y0026249D01*
X0256746Y0026354D01*
X0256631Y0026463D01*
X0256518Y0026574D01*
X0256408Y0026688D01*
X0256301Y0026805D01*
X0256197Y0026924D01*
X0256096Y0027046D01*
X0255999Y0027171D01*
X0255904Y0027298D01*
X0255813Y0027427D01*
X0255724Y0027558D01*
X0255640Y0027692D01*
X0255558Y0027828D01*
X0255480Y0027965D01*
X0255406Y0028105D01*
X0255335Y0028247D01*
X0255267Y0028390D01*
X0255203Y0028535D01*
X0255143Y0028681D01*
X0255087Y0028829D01*
X0255034Y0028978D01*
X0254985Y0029129D01*
X0254940Y0029281D01*
X0254899Y0029434D01*
X0254861Y0029587D01*
X0254828Y0029742D01*
X0254798Y0029898D01*
X0254772Y0030054D01*
X0254751Y0030211D01*
X0254733Y0030368D01*
X0254719Y0030526D01*
X0254709Y0030684D01*
X0254703Y0030842D01*
X0254701Y0031000D01*
X0254701Y0141000D02*
X0254703Y0141158D01*
X0254709Y0141316D01*
X0254719Y0141474D01*
X0254733Y0141632D01*
X0254751Y0141789D01*
X0254772Y0141946D01*
X0254798Y0142102D01*
X0254828Y0142258D01*
X0254861Y0142413D01*
X0254899Y0142566D01*
X0254940Y0142719D01*
X0254985Y0142871D01*
X0255034Y0143022D01*
X0255087Y0143171D01*
X0255143Y0143319D01*
X0255203Y0143465D01*
X0255267Y0143610D01*
X0255335Y0143753D01*
X0255406Y0143895D01*
X0255480Y0144035D01*
X0255558Y0144172D01*
X0255640Y0144308D01*
X0255724Y0144442D01*
X0255813Y0144573D01*
X0255904Y0144702D01*
X0255999Y0144829D01*
X0256096Y0144954D01*
X0256197Y0145076D01*
X0256301Y0145195D01*
X0256408Y0145312D01*
X0256518Y0145426D01*
X0256631Y0145537D01*
X0256746Y0145646D01*
X0256864Y0145751D01*
X0256985Y0145853D01*
X0257108Y0145953D01*
X0257234Y0146049D01*
X0257362Y0146142D01*
X0257492Y0146232D01*
X0257625Y0146318D01*
X0257760Y0146402D01*
X0257896Y0146481D01*
X0258035Y0146558D01*
X0258176Y0146630D01*
X0258318Y0146700D01*
X0258462Y0146765D01*
X0258608Y0146827D01*
X0258755Y0146885D01*
X0258904Y0146940D01*
X0259054Y0146991D01*
X0259205Y0147038D01*
X0259357Y0147081D01*
X0259510Y0147120D01*
X0259665Y0147156D01*
X0259820Y0147187D01*
X0259976Y0147215D01*
X0260132Y0147239D01*
X0260289Y0147259D01*
X0260447Y0147275D01*
X0260604Y0147287D01*
X0260763Y0147295D01*
X0260921Y0147299D01*
X0261079Y0147299D01*
X0261237Y0147295D01*
X0261396Y0147287D01*
X0261553Y0147275D01*
X0261711Y0147259D01*
X0261868Y0147239D01*
X0262024Y0147215D01*
X0262180Y0147187D01*
X0262335Y0147156D01*
X0262490Y0147120D01*
X0262643Y0147081D01*
X0262795Y0147038D01*
X0262946Y0146991D01*
X0263096Y0146940D01*
X0263245Y0146885D01*
X0263392Y0146827D01*
X0263538Y0146765D01*
X0263682Y0146700D01*
X0263824Y0146630D01*
X0263965Y0146558D01*
X0264104Y0146481D01*
X0264240Y0146402D01*
X0264375Y0146318D01*
X0264508Y0146232D01*
X0264638Y0146142D01*
X0264766Y0146049D01*
X0264892Y0145953D01*
X0265015Y0145853D01*
X0265136Y0145751D01*
X0265254Y0145646D01*
X0265369Y0145537D01*
X0265482Y0145426D01*
X0265592Y0145312D01*
X0265699Y0145195D01*
X0265803Y0145076D01*
X0265904Y0144954D01*
X0266001Y0144829D01*
X0266096Y0144702D01*
X0266187Y0144573D01*
X0266276Y0144442D01*
X0266360Y0144308D01*
X0266442Y0144172D01*
X0266520Y0144035D01*
X0266594Y0143895D01*
X0266665Y0143753D01*
X0266733Y0143610D01*
X0266797Y0143465D01*
X0266857Y0143319D01*
X0266913Y0143171D01*
X0266966Y0143022D01*
X0267015Y0142871D01*
X0267060Y0142719D01*
X0267101Y0142566D01*
X0267139Y0142413D01*
X0267172Y0142258D01*
X0267202Y0142102D01*
X0267228Y0141946D01*
X0267249Y0141789D01*
X0267267Y0141632D01*
X0267281Y0141474D01*
X0267291Y0141316D01*
X0267297Y0141158D01*
X0267299Y0141000D01*
X0267297Y0140842D01*
X0267291Y0140684D01*
X0267281Y0140526D01*
X0267267Y0140368D01*
X0267249Y0140211D01*
X0267228Y0140054D01*
X0267202Y0139898D01*
X0267172Y0139742D01*
X0267139Y0139587D01*
X0267101Y0139434D01*
X0267060Y0139281D01*
X0267015Y0139129D01*
X0266966Y0138978D01*
X0266913Y0138829D01*
X0266857Y0138681D01*
X0266797Y0138535D01*
X0266733Y0138390D01*
X0266665Y0138247D01*
X0266594Y0138105D01*
X0266520Y0137965D01*
X0266442Y0137828D01*
X0266360Y0137692D01*
X0266276Y0137558D01*
X0266187Y0137427D01*
X0266096Y0137298D01*
X0266001Y0137171D01*
X0265904Y0137046D01*
X0265803Y0136924D01*
X0265699Y0136805D01*
X0265592Y0136688D01*
X0265482Y0136574D01*
X0265369Y0136463D01*
X0265254Y0136354D01*
X0265136Y0136249D01*
X0265015Y0136147D01*
X0264892Y0136047D01*
X0264766Y0135951D01*
X0264638Y0135858D01*
X0264508Y0135768D01*
X0264375Y0135682D01*
X0264240Y0135598D01*
X0264104Y0135519D01*
X0263965Y0135442D01*
X0263824Y0135370D01*
X0263682Y0135300D01*
X0263538Y0135235D01*
X0263392Y0135173D01*
X0263245Y0135115D01*
X0263096Y0135060D01*
X0262946Y0135009D01*
X0262795Y0134962D01*
X0262643Y0134919D01*
X0262490Y0134880D01*
X0262335Y0134844D01*
X0262180Y0134813D01*
X0262024Y0134785D01*
X0261868Y0134761D01*
X0261711Y0134741D01*
X0261553Y0134725D01*
X0261396Y0134713D01*
X0261237Y0134705D01*
X0261079Y0134701D01*
X0260921Y0134701D01*
X0260763Y0134705D01*
X0260604Y0134713D01*
X0260447Y0134725D01*
X0260289Y0134741D01*
X0260132Y0134761D01*
X0259976Y0134785D01*
X0259820Y0134813D01*
X0259665Y0134844D01*
X0259510Y0134880D01*
X0259357Y0134919D01*
X0259205Y0134962D01*
X0259054Y0135009D01*
X0258904Y0135060D01*
X0258755Y0135115D01*
X0258608Y0135173D01*
X0258462Y0135235D01*
X0258318Y0135300D01*
X0258176Y0135370D01*
X0258035Y0135442D01*
X0257896Y0135519D01*
X0257760Y0135598D01*
X0257625Y0135682D01*
X0257492Y0135768D01*
X0257362Y0135858D01*
X0257234Y0135951D01*
X0257108Y0136047D01*
X0256985Y0136147D01*
X0256864Y0136249D01*
X0256746Y0136354D01*
X0256631Y0136463D01*
X0256518Y0136574D01*
X0256408Y0136688D01*
X0256301Y0136805D01*
X0256197Y0136924D01*
X0256096Y0137046D01*
X0255999Y0137171D01*
X0255904Y0137298D01*
X0255813Y0137427D01*
X0255724Y0137558D01*
X0255640Y0137692D01*
X0255558Y0137828D01*
X0255480Y0137965D01*
X0255406Y0138105D01*
X0255335Y0138247D01*
X0255267Y0138390D01*
X0255203Y0138535D01*
X0255143Y0138681D01*
X0255087Y0138829D01*
X0255034Y0138978D01*
X0254985Y0139129D01*
X0254940Y0139281D01*
X0254899Y0139434D01*
X0254861Y0139587D01*
X0254828Y0139742D01*
X0254798Y0139898D01*
X0254772Y0140054D01*
X0254751Y0140211D01*
X0254733Y0140368D01*
X0254719Y0140526D01*
X0254709Y0140684D01*
X0254703Y0140842D01*
X0254701Y0141000D01*
X0054701Y0201000D02*
X0054703Y0201158D01*
X0054709Y0201316D01*
X0054719Y0201474D01*
X0054733Y0201632D01*
X0054751Y0201789D01*
X0054772Y0201946D01*
X0054798Y0202102D01*
X0054828Y0202258D01*
X0054861Y0202413D01*
X0054899Y0202566D01*
X0054940Y0202719D01*
X0054985Y0202871D01*
X0055034Y0203022D01*
X0055087Y0203171D01*
X0055143Y0203319D01*
X0055203Y0203465D01*
X0055267Y0203610D01*
X0055335Y0203753D01*
X0055406Y0203895D01*
X0055480Y0204035D01*
X0055558Y0204172D01*
X0055640Y0204308D01*
X0055724Y0204442D01*
X0055813Y0204573D01*
X0055904Y0204702D01*
X0055999Y0204829D01*
X0056096Y0204954D01*
X0056197Y0205076D01*
X0056301Y0205195D01*
X0056408Y0205312D01*
X0056518Y0205426D01*
X0056631Y0205537D01*
X0056746Y0205646D01*
X0056864Y0205751D01*
X0056985Y0205853D01*
X0057108Y0205953D01*
X0057234Y0206049D01*
X0057362Y0206142D01*
X0057492Y0206232D01*
X0057625Y0206318D01*
X0057760Y0206402D01*
X0057896Y0206481D01*
X0058035Y0206558D01*
X0058176Y0206630D01*
X0058318Y0206700D01*
X0058462Y0206765D01*
X0058608Y0206827D01*
X0058755Y0206885D01*
X0058904Y0206940D01*
X0059054Y0206991D01*
X0059205Y0207038D01*
X0059357Y0207081D01*
X0059510Y0207120D01*
X0059665Y0207156D01*
X0059820Y0207187D01*
X0059976Y0207215D01*
X0060132Y0207239D01*
X0060289Y0207259D01*
X0060447Y0207275D01*
X0060604Y0207287D01*
X0060763Y0207295D01*
X0060921Y0207299D01*
X0061079Y0207299D01*
X0061237Y0207295D01*
X0061396Y0207287D01*
X0061553Y0207275D01*
X0061711Y0207259D01*
X0061868Y0207239D01*
X0062024Y0207215D01*
X0062180Y0207187D01*
X0062335Y0207156D01*
X0062490Y0207120D01*
X0062643Y0207081D01*
X0062795Y0207038D01*
X0062946Y0206991D01*
X0063096Y0206940D01*
X0063245Y0206885D01*
X0063392Y0206827D01*
X0063538Y0206765D01*
X0063682Y0206700D01*
X0063824Y0206630D01*
X0063965Y0206558D01*
X0064104Y0206481D01*
X0064240Y0206402D01*
X0064375Y0206318D01*
X0064508Y0206232D01*
X0064638Y0206142D01*
X0064766Y0206049D01*
X0064892Y0205953D01*
X0065015Y0205853D01*
X0065136Y0205751D01*
X0065254Y0205646D01*
X0065369Y0205537D01*
X0065482Y0205426D01*
X0065592Y0205312D01*
X0065699Y0205195D01*
X0065803Y0205076D01*
X0065904Y0204954D01*
X0066001Y0204829D01*
X0066096Y0204702D01*
X0066187Y0204573D01*
X0066276Y0204442D01*
X0066360Y0204308D01*
X0066442Y0204172D01*
X0066520Y0204035D01*
X0066594Y0203895D01*
X0066665Y0203753D01*
X0066733Y0203610D01*
X0066797Y0203465D01*
X0066857Y0203319D01*
X0066913Y0203171D01*
X0066966Y0203022D01*
X0067015Y0202871D01*
X0067060Y0202719D01*
X0067101Y0202566D01*
X0067139Y0202413D01*
X0067172Y0202258D01*
X0067202Y0202102D01*
X0067228Y0201946D01*
X0067249Y0201789D01*
X0067267Y0201632D01*
X0067281Y0201474D01*
X0067291Y0201316D01*
X0067297Y0201158D01*
X0067299Y0201000D01*
X0067297Y0200842D01*
X0067291Y0200684D01*
X0067281Y0200526D01*
X0067267Y0200368D01*
X0067249Y0200211D01*
X0067228Y0200054D01*
X0067202Y0199898D01*
X0067172Y0199742D01*
X0067139Y0199587D01*
X0067101Y0199434D01*
X0067060Y0199281D01*
X0067015Y0199129D01*
X0066966Y0198978D01*
X0066913Y0198829D01*
X0066857Y0198681D01*
X0066797Y0198535D01*
X0066733Y0198390D01*
X0066665Y0198247D01*
X0066594Y0198105D01*
X0066520Y0197965D01*
X0066442Y0197828D01*
X0066360Y0197692D01*
X0066276Y0197558D01*
X0066187Y0197427D01*
X0066096Y0197298D01*
X0066001Y0197171D01*
X0065904Y0197046D01*
X0065803Y0196924D01*
X0065699Y0196805D01*
X0065592Y0196688D01*
X0065482Y0196574D01*
X0065369Y0196463D01*
X0065254Y0196354D01*
X0065136Y0196249D01*
X0065015Y0196147D01*
X0064892Y0196047D01*
X0064766Y0195951D01*
X0064638Y0195858D01*
X0064508Y0195768D01*
X0064375Y0195682D01*
X0064240Y0195598D01*
X0064104Y0195519D01*
X0063965Y0195442D01*
X0063824Y0195370D01*
X0063682Y0195300D01*
X0063538Y0195235D01*
X0063392Y0195173D01*
X0063245Y0195115D01*
X0063096Y0195060D01*
X0062946Y0195009D01*
X0062795Y0194962D01*
X0062643Y0194919D01*
X0062490Y0194880D01*
X0062335Y0194844D01*
X0062180Y0194813D01*
X0062024Y0194785D01*
X0061868Y0194761D01*
X0061711Y0194741D01*
X0061553Y0194725D01*
X0061396Y0194713D01*
X0061237Y0194705D01*
X0061079Y0194701D01*
X0060921Y0194701D01*
X0060763Y0194705D01*
X0060604Y0194713D01*
X0060447Y0194725D01*
X0060289Y0194741D01*
X0060132Y0194761D01*
X0059976Y0194785D01*
X0059820Y0194813D01*
X0059665Y0194844D01*
X0059510Y0194880D01*
X0059357Y0194919D01*
X0059205Y0194962D01*
X0059054Y0195009D01*
X0058904Y0195060D01*
X0058755Y0195115D01*
X0058608Y0195173D01*
X0058462Y0195235D01*
X0058318Y0195300D01*
X0058176Y0195370D01*
X0058035Y0195442D01*
X0057896Y0195519D01*
X0057760Y0195598D01*
X0057625Y0195682D01*
X0057492Y0195768D01*
X0057362Y0195858D01*
X0057234Y0195951D01*
X0057108Y0196047D01*
X0056985Y0196147D01*
X0056864Y0196249D01*
X0056746Y0196354D01*
X0056631Y0196463D01*
X0056518Y0196574D01*
X0056408Y0196688D01*
X0056301Y0196805D01*
X0056197Y0196924D01*
X0056096Y0197046D01*
X0055999Y0197171D01*
X0055904Y0197298D01*
X0055813Y0197427D01*
X0055724Y0197558D01*
X0055640Y0197692D01*
X0055558Y0197828D01*
X0055480Y0197965D01*
X0055406Y0198105D01*
X0055335Y0198247D01*
X0055267Y0198390D01*
X0055203Y0198535D01*
X0055143Y0198681D01*
X0055087Y0198829D01*
X0055034Y0198978D01*
X0054985Y0199129D01*
X0054940Y0199281D01*
X0054899Y0199434D01*
X0054861Y0199587D01*
X0054828Y0199742D01*
X0054798Y0199898D01*
X0054772Y0200054D01*
X0054751Y0200211D01*
X0054733Y0200368D01*
X0054719Y0200526D01*
X0054709Y0200684D01*
X0054703Y0200842D01*
X0054701Y0201000D01*
D11*
X0074386Y0189954D02*
X0078089Y0189954D01*
X0078089Y0192423D01*
X0077472Y0188740D02*
X0078089Y0188123D01*
X0078089Y0186888D01*
X0077472Y0186271D01*
X0075003Y0186271D01*
X0074386Y0186888D01*
X0074386Y0188123D01*
X0075003Y0188740D01*
X0075003Y0185057D02*
X0074386Y0184440D01*
X0074386Y0183205D01*
X0075003Y0182588D01*
X0075620Y0182588D01*
X0076237Y0183205D01*
X0076237Y0184440D01*
X0076854Y0185057D01*
X0077472Y0185057D01*
X0078089Y0184440D01*
X0078089Y0183205D01*
X0077472Y0182588D01*
X0084386Y0183205D02*
X0085003Y0182588D01*
X0085620Y0182588D01*
X0086237Y0183205D01*
X0086237Y0184440D01*
X0086854Y0185057D01*
X0087472Y0185057D01*
X0088089Y0184440D01*
X0088089Y0183205D01*
X0087472Y0182588D01*
X0084386Y0183205D02*
X0084386Y0184440D01*
X0085003Y0185057D01*
X0084386Y0186271D02*
X0084386Y0188123D01*
X0085003Y0188740D01*
X0087472Y0188740D01*
X0088089Y0188123D01*
X0088089Y0186271D01*
X0084386Y0186271D01*
X0085620Y0189954D02*
X0084386Y0191189D01*
X0085620Y0192423D01*
X0088089Y0192423D01*
X0086237Y0192423D02*
X0086237Y0189954D01*
X0085620Y0189954D02*
X0088089Y0189954D01*
X0094386Y0192416D02*
X0095003Y0191799D01*
X0098089Y0191799D01*
X0096237Y0191182D02*
X0096237Y0192416D01*
X0096237Y0189968D02*
X0096854Y0189968D01*
X0096854Y0187499D01*
X0096237Y0187499D02*
X0095620Y0188116D01*
X0095620Y0189351D01*
X0096237Y0189968D01*
X0098089Y0189351D02*
X0098089Y0188116D01*
X0097472Y0187499D01*
X0096237Y0187499D01*
X0096237Y0186285D02*
X0096854Y0185667D01*
X0096854Y0183816D01*
X0096854Y0185050D02*
X0098089Y0186285D01*
X0096237Y0186285D02*
X0095003Y0186285D01*
X0094386Y0185667D01*
X0094386Y0183816D01*
X0098089Y0183816D01*
X0098089Y0182601D02*
X0095620Y0182601D01*
X0094386Y0181367D01*
X0095620Y0180133D01*
X0098089Y0180133D01*
X0096237Y0180133D02*
X0096237Y0182601D01*
X0104386Y0183205D02*
X0105003Y0182588D01*
X0107472Y0182588D01*
X0108089Y0183205D01*
X0108089Y0184440D01*
X0107472Y0185057D01*
X0106237Y0185057D01*
X0106237Y0183822D01*
X0105003Y0185057D02*
X0104386Y0184440D01*
X0104386Y0183205D01*
X0104386Y0186271D02*
X0108089Y0188740D01*
X0104386Y0188740D01*
X0104386Y0189954D02*
X0104386Y0191806D01*
X0105003Y0192423D01*
X0107472Y0192423D01*
X0108089Y0191806D01*
X0108089Y0189954D01*
X0104386Y0189954D01*
X0104386Y0186271D02*
X0108089Y0186271D01*
X0114386Y0187506D02*
X0118089Y0187506D01*
X0118089Y0188740D02*
X0118089Y0186271D01*
X0115620Y0186271D02*
X0114386Y0187506D01*
X0115003Y0189954D02*
X0114386Y0190572D01*
X0114386Y0191806D01*
X0115003Y0192423D01*
X0115620Y0192423D01*
X0116237Y0191806D01*
X0116854Y0192423D01*
X0117472Y0192423D01*
X0118089Y0191806D01*
X0118089Y0190572D01*
X0117472Y0189954D01*
X0116237Y0191189D02*
X0116237Y0191806D01*
X0124386Y0191806D02*
X0124386Y0190572D01*
X0125003Y0189954D01*
X0124386Y0191806D02*
X0125003Y0192423D01*
X0125620Y0192423D01*
X0128089Y0189954D01*
X0128089Y0192423D01*
X0128089Y0188740D02*
X0128089Y0186271D01*
X0128089Y0187506D02*
X0124386Y0187506D01*
X0125620Y0186271D01*
X0133769Y0183205D02*
X0135003Y0184440D01*
X0134386Y0185057D01*
X0135620Y0186271D02*
X0134386Y0187506D01*
X0138089Y0187506D01*
X0138089Y0188740D02*
X0138089Y0186271D01*
X0138089Y0189954D02*
X0138089Y0192423D01*
X0138089Y0191189D02*
X0134386Y0191189D01*
X0135620Y0189954D01*
X0133769Y0183205D02*
X0134386Y0182588D01*
X0143769Y0183205D02*
X0145003Y0184440D01*
X0144386Y0185057D01*
X0145620Y0186271D02*
X0144386Y0187506D01*
X0148089Y0187506D01*
X0148089Y0188740D02*
X0148089Y0186271D01*
X0147472Y0189954D02*
X0145003Y0189954D01*
X0144386Y0190572D01*
X0144386Y0191806D01*
X0145003Y0192423D01*
X0147472Y0189954D01*
X0148089Y0190572D01*
X0148089Y0191806D01*
X0147472Y0192423D01*
X0145003Y0192423D01*
X0154386Y0191806D02*
X0154386Y0190572D01*
X0155003Y0189954D01*
X0155620Y0189954D01*
X0156237Y0190572D01*
X0156237Y0192423D01*
X0155003Y0192423D02*
X0157472Y0192423D01*
X0158089Y0191806D01*
X0158089Y0190572D01*
X0157472Y0189954D01*
X0155003Y0188123D02*
X0154386Y0188740D01*
X0155003Y0188123D02*
X0153769Y0186888D01*
X0154386Y0186271D01*
X0154386Y0191806D02*
X0155003Y0192423D01*
X0164386Y0191806D02*
X0165003Y0192423D01*
X0165620Y0192423D01*
X0166237Y0191806D01*
X0166237Y0190572D01*
X0165620Y0189954D01*
X0165003Y0189954D01*
X0164386Y0190572D01*
X0164386Y0191806D01*
X0166237Y0191806D02*
X0166854Y0192423D01*
X0167472Y0192423D01*
X0168089Y0191806D01*
X0168089Y0190572D01*
X0167472Y0189954D01*
X0166854Y0189954D01*
X0166237Y0190572D01*
X0179386Y0189954D02*
X0179386Y0192423D01*
X0180003Y0192423D01*
X0182472Y0189954D01*
X0183089Y0189954D01*
X0189386Y0188740D02*
X0190003Y0188123D01*
X0188769Y0186888D01*
X0189386Y0186271D01*
X0191237Y0189954D02*
X0191237Y0191806D01*
X0191854Y0192423D01*
X0192472Y0192423D01*
X0193089Y0191806D01*
X0193089Y0190572D01*
X0192472Y0189954D01*
X0191237Y0189954D01*
X0190003Y0191189D01*
X0189386Y0192423D01*
X0199386Y0192423D02*
X0199386Y0189954D01*
X0201237Y0189954D01*
X0200620Y0191189D01*
X0200620Y0191806D01*
X0201237Y0192423D01*
X0202472Y0192423D01*
X0203089Y0191806D01*
X0203089Y0190572D01*
X0202472Y0189954D01*
X0200003Y0188123D02*
X0199386Y0188740D01*
X0200003Y0188123D02*
X0198769Y0186888D01*
X0199386Y0186271D01*
X0209386Y0191806D02*
X0211237Y0189954D01*
X0211237Y0192423D01*
X0209386Y0191806D02*
X0213089Y0191806D01*
X0219386Y0191806D02*
X0220003Y0192423D01*
X0220620Y0192423D01*
X0221237Y0191806D01*
X0221854Y0192423D01*
X0222472Y0192423D01*
X0223089Y0191806D01*
X0223089Y0190572D01*
X0222472Y0189954D01*
X0221237Y0191189D02*
X0221237Y0191806D01*
X0219386Y0191806D02*
X0219386Y0190572D01*
X0220003Y0189954D01*
X0219386Y0188740D02*
X0220003Y0188123D01*
X0218769Y0186888D01*
X0219386Y0186271D01*
X0229386Y0190572D02*
X0230003Y0189954D01*
X0229386Y0190572D02*
X0229386Y0191806D01*
X0230003Y0192423D01*
X0230620Y0192423D01*
X0233089Y0189954D01*
X0233089Y0192423D01*
X0239386Y0191189D02*
X0240620Y0189954D01*
X0239386Y0191189D02*
X0243089Y0191189D01*
X0243089Y0192423D02*
X0243089Y0189954D01*
X0243706Y0188740D02*
X0243706Y0186271D01*
X0243089Y0185057D02*
X0239386Y0182588D01*
X0239386Y0181374D02*
X0239386Y0178905D01*
X0239386Y0180139D02*
X0243089Y0180139D01*
X0243089Y0182588D02*
X0239386Y0185057D01*
X0249386Y0185057D02*
X0253089Y0182588D01*
X0253089Y0181374D02*
X0251854Y0180139D01*
X0251854Y0180757D02*
X0251854Y0178905D01*
X0253089Y0178905D02*
X0249386Y0178905D01*
X0249386Y0180757D01*
X0250003Y0181374D01*
X0251237Y0181374D01*
X0251854Y0180757D01*
X0249386Y0182588D02*
X0253089Y0185057D01*
X0253706Y0186271D02*
X0253706Y0188740D01*
X0252472Y0189954D02*
X0253089Y0190572D01*
X0253089Y0191806D01*
X0252472Y0192423D01*
X0250003Y0192423D01*
X0252472Y0189954D01*
X0250003Y0189954D01*
X0249386Y0190572D01*
X0249386Y0191806D01*
X0250003Y0192423D01*
X0249872Y0132614D02*
X0248638Y0132614D01*
X0249255Y0132614D02*
X0249255Y0128911D01*
X0248638Y0128911D02*
X0249872Y0128911D01*
X0251093Y0129528D02*
X0251093Y0131997D01*
X0251710Y0132614D01*
X0252945Y0132614D01*
X0253562Y0131997D01*
X0254776Y0131997D02*
X0254776Y0131380D01*
X0255393Y0130763D01*
X0256628Y0130763D01*
X0257245Y0130146D01*
X0257245Y0129528D01*
X0256628Y0128911D01*
X0255393Y0128911D01*
X0254776Y0129528D01*
X0253562Y0129528D02*
X0252945Y0128911D01*
X0251710Y0128911D01*
X0251093Y0129528D01*
X0254776Y0131997D02*
X0255393Y0132614D01*
X0256628Y0132614D01*
X0257245Y0131997D01*
X0258459Y0132614D02*
X0258459Y0128911D01*
X0258459Y0130146D02*
X0260311Y0130146D01*
X0260928Y0130763D01*
X0260928Y0131997D01*
X0260311Y0132614D01*
X0258459Y0132614D01*
X0144386Y0182588D02*
X0143769Y0183205D01*
X0133089Y0034605D02*
X0132472Y0033987D01*
X0130003Y0033987D01*
X0130620Y0033370D02*
X0130620Y0034605D01*
X0131237Y0032156D02*
X0131854Y0032156D01*
X0131854Y0029687D01*
X0131237Y0029687D02*
X0130620Y0030304D01*
X0130620Y0031539D01*
X0131237Y0032156D01*
X0133089Y0031539D02*
X0133089Y0030304D01*
X0132472Y0029687D01*
X0131237Y0029687D01*
X0130620Y0028473D02*
X0130620Y0026621D01*
X0131237Y0026004D01*
X0131854Y0026621D01*
X0131854Y0027855D01*
X0132472Y0028473D01*
X0133089Y0027855D01*
X0133089Y0026004D01*
X0131854Y0024789D02*
X0131854Y0022321D01*
X0131237Y0022321D02*
X0130620Y0022938D01*
X0130620Y0024172D01*
X0131237Y0024789D01*
X0131854Y0024789D01*
X0133089Y0024172D02*
X0133089Y0022938D01*
X0132472Y0022321D01*
X0131237Y0022321D01*
X0131237Y0021106D02*
X0130003Y0021106D01*
X0129386Y0020489D01*
X0129386Y0018638D01*
X0133089Y0018638D01*
X0131854Y0018638D02*
X0131854Y0020489D01*
X0131237Y0021106D01*
X0131854Y0019872D02*
X0133089Y0021106D01*
X0139386Y0020489D02*
X0139386Y0019255D01*
X0140003Y0018638D01*
X0141237Y0019872D02*
X0141237Y0020489D01*
X0141854Y0021106D01*
X0142472Y0021106D01*
X0143089Y0020489D01*
X0143089Y0019255D01*
X0142472Y0018638D01*
X0141237Y0020489D02*
X0140620Y0021106D01*
X0140003Y0021106D01*
X0139386Y0020489D01*
X0142472Y0022321D02*
X0142472Y0022938D01*
X0143089Y0022938D01*
X0143089Y0022321D01*
X0142472Y0022321D01*
X0142472Y0024162D02*
X0143089Y0024779D01*
X0143089Y0026014D01*
X0142472Y0026631D01*
X0141854Y0026631D01*
X0141237Y0026014D01*
X0141237Y0025397D01*
X0141237Y0026014D02*
X0140620Y0026631D01*
X0140003Y0026631D01*
X0139386Y0026014D01*
X0139386Y0024779D01*
X0140003Y0024162D01*
X0139386Y0027845D02*
X0141854Y0027845D01*
X0143089Y0029080D01*
X0141854Y0030314D01*
X0139386Y0030314D01*
X0149386Y0024789D02*
X0151854Y0024789D01*
X0153089Y0023555D01*
X0151854Y0022321D01*
X0149386Y0022321D01*
X0149386Y0021106D02*
X0149386Y0018638D01*
X0151237Y0018638D01*
X0150620Y0019872D01*
X0150620Y0020489D01*
X0151237Y0021106D01*
X0152472Y0021106D01*
X0153089Y0020489D01*
X0153089Y0019255D01*
X0152472Y0018638D01*
X0159386Y0019255D02*
X0160003Y0018638D01*
X0162472Y0018638D01*
X0163089Y0019255D01*
X0163089Y0020489D01*
X0162472Y0021106D01*
X0161237Y0021106D01*
X0161237Y0019872D01*
X0160003Y0021106D02*
X0159386Y0020489D01*
X0159386Y0019255D01*
X0159386Y0022321D02*
X0163089Y0024789D01*
X0159386Y0024789D01*
X0159386Y0026004D02*
X0159386Y0027855D01*
X0160003Y0028473D01*
X0162472Y0028473D01*
X0163089Y0027855D01*
X0163089Y0026004D01*
X0159386Y0026004D01*
X0159386Y0022321D02*
X0163089Y0022321D01*
X0169386Y0022321D02*
X0173089Y0024789D01*
X0169386Y0024789D01*
X0169386Y0026004D02*
X0169386Y0027855D01*
X0170003Y0028473D01*
X0172472Y0028473D01*
X0173089Y0027855D01*
X0173089Y0026004D01*
X0169386Y0026004D01*
X0169386Y0022321D02*
X0173089Y0022321D01*
X0172472Y0021106D02*
X0171237Y0021106D01*
X0171237Y0019872D01*
X0170003Y0021106D02*
X0169386Y0020489D01*
X0169386Y0019255D01*
X0170003Y0018638D01*
X0172472Y0018638D01*
X0173089Y0019255D01*
X0173089Y0020489D01*
X0172472Y0021106D01*
X0178769Y0022938D02*
X0179386Y0022938D01*
X0180620Y0022938D02*
X0183089Y0022938D01*
X0183089Y0022321D02*
X0183089Y0023555D01*
X0183089Y0024776D02*
X0180620Y0024776D01*
X0180620Y0026628D01*
X0181237Y0027245D01*
X0183089Y0027245D01*
X0180620Y0022938D02*
X0180620Y0022321D01*
X0181854Y0021106D02*
X0179386Y0021106D01*
X0179386Y0018638D02*
X0181854Y0018638D01*
X0183089Y0019872D01*
X0181854Y0021106D01*
X0199386Y0019872D02*
X0200620Y0018638D01*
X0203089Y0018638D01*
X0201237Y0018638D02*
X0201237Y0021106D01*
X0200620Y0021106D02*
X0203089Y0021106D01*
X0202472Y0022321D02*
X0200003Y0022321D01*
X0199386Y0022938D01*
X0199386Y0024172D01*
X0200003Y0024789D01*
X0202472Y0022321D01*
X0203089Y0022938D01*
X0203089Y0024172D01*
X0202472Y0024789D01*
X0200003Y0024789D01*
X0200620Y0021106D02*
X0199386Y0019872D01*
X0209386Y0019872D02*
X0210620Y0021106D01*
X0213089Y0021106D01*
X0213089Y0022321D02*
X0213089Y0024789D01*
X0213089Y0023555D02*
X0209386Y0023555D01*
X0210620Y0022321D01*
X0211237Y0021106D02*
X0211237Y0018638D01*
X0210620Y0018638D02*
X0209386Y0019872D01*
X0210620Y0018638D02*
X0213089Y0018638D01*
X0219386Y0019872D02*
X0220620Y0021106D01*
X0223089Y0021106D01*
X0223089Y0022321D02*
X0220620Y0024789D01*
X0220003Y0024789D01*
X0219386Y0024172D01*
X0219386Y0022938D01*
X0220003Y0022321D01*
X0221237Y0021106D02*
X0221237Y0018638D01*
X0220620Y0018638D02*
X0219386Y0019872D01*
X0220620Y0018638D02*
X0223089Y0018638D01*
X0223089Y0022321D02*
X0223089Y0024789D01*
X0229386Y0024172D02*
X0229386Y0022938D01*
X0230003Y0022321D01*
X0230620Y0021106D02*
X0233089Y0021106D01*
X0232472Y0022321D02*
X0233089Y0022938D01*
X0233089Y0024172D01*
X0232472Y0024789D01*
X0231854Y0024789D01*
X0231237Y0024172D01*
X0231237Y0023555D01*
X0231237Y0024172D02*
X0230620Y0024789D01*
X0230003Y0024789D01*
X0229386Y0024172D01*
X0230620Y0021106D02*
X0229386Y0019872D01*
X0230620Y0018638D01*
X0233089Y0018638D01*
X0231237Y0018638D02*
X0231237Y0021106D01*
X0239386Y0019872D02*
X0240620Y0018638D01*
X0243089Y0018638D01*
X0241237Y0018638D02*
X0241237Y0021106D01*
X0240620Y0021106D02*
X0243089Y0021106D01*
X0241237Y0022321D02*
X0241237Y0024789D01*
X0239386Y0024172D02*
X0241237Y0022321D01*
X0240620Y0021106D02*
X0239386Y0019872D01*
X0239386Y0024172D02*
X0243089Y0024172D01*
X0249386Y0024789D02*
X0249386Y0022321D01*
X0251237Y0022321D01*
X0250620Y0023555D01*
X0250620Y0024172D01*
X0251237Y0024789D01*
X0252472Y0024789D01*
X0253089Y0024172D01*
X0253089Y0022938D01*
X0252472Y0022321D01*
X0253089Y0021106D02*
X0250620Y0021106D01*
X0249386Y0019872D01*
X0250620Y0018638D01*
X0253089Y0018638D01*
X0251237Y0018638D02*
X0251237Y0021106D01*
X0123089Y0021710D02*
X0122472Y0021093D01*
X0120003Y0021093D01*
X0119386Y0021710D01*
X0119386Y0022945D01*
X0120003Y0023562D01*
X0122472Y0023562D01*
X0123089Y0022945D01*
X0123089Y0021710D01*
X0123089Y0019872D02*
X0123089Y0018638D01*
X0123089Y0019255D02*
X0119386Y0019255D01*
X0119386Y0018638D02*
X0119386Y0019872D01*
X0119386Y0024776D02*
X0119386Y0026628D01*
X0120003Y0027245D01*
X0121237Y0027245D01*
X0121854Y0026628D01*
X0121854Y0024776D01*
X0121854Y0026010D02*
X0123089Y0027245D01*
X0122472Y0028459D02*
X0121237Y0028459D01*
X0120620Y0029076D01*
X0120620Y0030311D01*
X0121237Y0030928D01*
X0121854Y0030928D01*
X0121854Y0028459D01*
X0122472Y0028459D02*
X0123089Y0029076D01*
X0123089Y0030311D01*
X0123089Y0032760D02*
X0120003Y0032760D01*
X0119386Y0033377D01*
X0121237Y0033377D02*
X0121237Y0032142D01*
X0123089Y0024776D02*
X0119386Y0024776D01*
D12*
X0088619Y0028300D02*
X0085417Y0028300D01*
X0084349Y0029368D01*
X0084349Y0031503D01*
X0085417Y0032570D01*
X0088619Y0032570D01*
X0088619Y0034705D02*
X0088619Y0028300D01*
X0082174Y0030435D02*
X0077903Y0030435D01*
X0077903Y0029368D02*
X0077903Y0031503D01*
X0078971Y0032570D01*
X0081106Y0032570D01*
X0082174Y0031503D01*
X0082174Y0030435D01*
X0081106Y0028300D02*
X0078971Y0028300D01*
X0077903Y0029368D01*
X0075728Y0032570D02*
X0073593Y0028300D01*
X0071458Y0032570D01*
X0069283Y0031503D02*
X0069283Y0028300D01*
X0066080Y0028300D01*
X0065012Y0029368D01*
X0066080Y0030435D01*
X0069283Y0030435D01*
X0069283Y0031503D02*
X0068215Y0032570D01*
X0066080Y0032570D01*
X0062837Y0031503D02*
X0062837Y0030435D01*
X0058567Y0030435D01*
X0058567Y0029368D02*
X0058567Y0031503D01*
X0059635Y0032570D01*
X0061770Y0032570D01*
X0062837Y0031503D01*
X0061770Y0028300D02*
X0059635Y0028300D01*
X0058567Y0029368D01*
X0056405Y0028300D02*
X0054270Y0028300D01*
X0055338Y0028300D02*
X0055338Y0034705D01*
X0054270Y0034705D01*
X0052101Y0032570D02*
X0051034Y0032570D01*
X0048899Y0030435D01*
X0048899Y0028300D02*
X0048899Y0032570D01*
X0046724Y0031503D02*
X0046724Y0030435D01*
X0042453Y0030435D01*
X0042453Y0029368D02*
X0042453Y0031503D01*
X0043521Y0032570D01*
X0045656Y0032570D01*
X0046724Y0031503D01*
X0045656Y0028300D02*
X0043521Y0028300D01*
X0042453Y0029368D01*
X0040291Y0028300D02*
X0039224Y0029368D01*
X0039224Y0033638D01*
X0040291Y0032570D02*
X0038156Y0032570D01*
X0035981Y0031503D02*
X0035981Y0028300D01*
X0035981Y0031503D02*
X0034913Y0032570D01*
X0031711Y0032570D01*
X0031711Y0028300D01*
X0029549Y0028300D02*
X0027414Y0028300D01*
X0028481Y0028300D02*
X0028481Y0034705D01*
X0027414Y0034705D02*
X0029549Y0034705D01*
X0030616Y0038800D02*
X0027414Y0038800D01*
X0027414Y0045205D01*
X0030616Y0045205D01*
X0031684Y0044138D01*
X0031684Y0039868D01*
X0030616Y0038800D01*
X0033859Y0039868D02*
X0033859Y0042003D01*
X0034927Y0043070D01*
X0037062Y0043070D01*
X0038130Y0042003D01*
X0038130Y0040935D01*
X0033859Y0040935D01*
X0033859Y0039868D02*
X0034927Y0038800D01*
X0037062Y0038800D01*
X0041372Y0039868D02*
X0042440Y0038800D01*
X0041372Y0039868D02*
X0041372Y0044138D01*
X0040305Y0043070D02*
X0042440Y0043070D01*
X0044602Y0042003D02*
X0044602Y0039868D01*
X0045669Y0038800D01*
X0047804Y0038800D01*
X0048872Y0040935D02*
X0044602Y0040935D01*
X0044602Y0042003D02*
X0045669Y0043070D01*
X0047804Y0043070D01*
X0048872Y0042003D01*
X0048872Y0040935D01*
X0051047Y0039868D02*
X0051047Y0042003D01*
X0052115Y0043070D01*
X0055318Y0043070D01*
X0057493Y0043070D02*
X0059628Y0043070D01*
X0058560Y0044138D02*
X0058560Y0039868D01*
X0059628Y0038800D01*
X0061790Y0039868D02*
X0062857Y0038800D01*
X0064992Y0038800D01*
X0066060Y0039868D01*
X0066060Y0042003D01*
X0064992Y0043070D01*
X0062857Y0043070D01*
X0061790Y0042003D01*
X0061790Y0039868D01*
X0055318Y0038800D02*
X0052115Y0038800D01*
X0051047Y0039868D01*
X0052115Y0049300D02*
X0055318Y0049300D01*
X0052115Y0049300D02*
X0051047Y0050368D01*
X0051047Y0052503D01*
X0052115Y0053570D01*
X0055318Y0053570D01*
X0057493Y0053570D02*
X0059628Y0053570D01*
X0058560Y0054638D02*
X0058560Y0050368D01*
X0059628Y0049300D01*
X0061790Y0050368D02*
X0062857Y0049300D01*
X0064992Y0049300D01*
X0066060Y0050368D01*
X0066060Y0052503D01*
X0064992Y0053570D01*
X0062857Y0053570D01*
X0061790Y0052503D01*
X0061790Y0050368D01*
X0068235Y0051435D02*
X0070370Y0053570D01*
X0071438Y0053570D01*
X0068235Y0053570D02*
X0068235Y0049300D01*
X0068235Y0043070D02*
X0068235Y0038800D01*
X0068235Y0040935D02*
X0070370Y0043070D01*
X0071438Y0043070D01*
X0080052Y0044138D02*
X0081120Y0045205D01*
X0083255Y0045205D01*
X0084322Y0044138D01*
X0084322Y0043070D01*
X0080052Y0038800D01*
X0084322Y0038800D01*
X0084322Y0049300D02*
X0080052Y0049300D01*
X0082187Y0049300D02*
X0082187Y0055705D01*
X0080052Y0053570D01*
X0048872Y0052503D02*
X0048872Y0051435D01*
X0044602Y0051435D01*
X0044602Y0050368D02*
X0044602Y0052503D01*
X0045669Y0053570D01*
X0047804Y0053570D01*
X0048872Y0052503D01*
X0045669Y0049300D02*
X0044602Y0050368D01*
X0045669Y0049300D02*
X0047804Y0049300D01*
X0042440Y0049300D02*
X0041372Y0050368D01*
X0041372Y0054638D01*
X0040305Y0053570D02*
X0042440Y0053570D01*
X0038130Y0052503D02*
X0038130Y0051435D01*
X0033859Y0051435D01*
X0033859Y0050368D02*
X0033859Y0052503D01*
X0034927Y0053570D01*
X0037062Y0053570D01*
X0038130Y0052503D01*
X0037062Y0049300D02*
X0034927Y0049300D01*
X0033859Y0050368D01*
X0031684Y0050368D02*
X0030616Y0049300D01*
X0027414Y0049300D01*
X0027414Y0055705D01*
X0030616Y0055705D01*
X0031684Y0054638D01*
X0031684Y0050368D01*
X0018813Y0050368D02*
X0018813Y0049300D01*
X0017745Y0049300D01*
X0017745Y0050368D01*
X0018813Y0050368D01*
X0018813Y0052503D02*
X0017745Y0052503D01*
X0017745Y0053570D01*
X0018813Y0053570D01*
X0018813Y0052503D01*
X0015570Y0049300D02*
X0011300Y0049300D01*
X0013435Y0049300D02*
X0013435Y0055705D01*
X0011300Y0053570D01*
X0012368Y0045205D02*
X0011300Y0044138D01*
X0012368Y0045205D02*
X0014503Y0045205D01*
X0015570Y0044138D01*
X0015570Y0043070D01*
X0011300Y0038800D01*
X0015570Y0038800D01*
X0017745Y0038800D02*
X0017745Y0039868D01*
X0018813Y0039868D01*
X0018813Y0038800D01*
X0017745Y0038800D01*
X0014503Y0034705D02*
X0015570Y0033638D01*
X0015570Y0032570D01*
X0014503Y0031503D01*
X0015570Y0030435D01*
X0015570Y0029368D01*
X0014503Y0028300D01*
X0012368Y0028300D01*
X0011300Y0029368D01*
X0013435Y0031503D02*
X0014503Y0031503D01*
X0017745Y0031503D02*
X0017745Y0032570D01*
X0018813Y0032570D01*
X0018813Y0031503D01*
X0017745Y0031503D01*
X0017745Y0029368D02*
X0017745Y0028300D01*
X0018813Y0028300D01*
X0018813Y0029368D01*
X0017745Y0029368D01*
X0012368Y0034705D02*
X0011300Y0033638D01*
X0012368Y0034705D02*
X0014503Y0034705D01*
X0017745Y0042003D02*
X0017745Y0043070D01*
X0018813Y0043070D01*
X0018813Y0042003D01*
X0017745Y0042003D01*
X0121300Y0086300D02*
X0121300Y0092705D01*
X0125570Y0092705D01*
X0127745Y0090570D02*
X0127745Y0086300D01*
X0127745Y0088435D02*
X0129881Y0090570D01*
X0130948Y0090570D01*
X0134184Y0090570D02*
X0136319Y0090570D01*
X0137387Y0089503D01*
X0137387Y0086300D01*
X0134184Y0086300D01*
X0133117Y0087368D01*
X0134184Y0088435D01*
X0137387Y0088435D01*
X0139562Y0086300D02*
X0139562Y0090570D01*
X0140630Y0090570D01*
X0141697Y0089503D01*
X0142765Y0090570D01*
X0143833Y0089503D01*
X0143833Y0086300D01*
X0141697Y0086300D02*
X0141697Y0089503D01*
X0146008Y0089503D02*
X0146008Y0087368D01*
X0147075Y0086300D01*
X0149210Y0086300D01*
X0150278Y0088435D02*
X0146008Y0088435D01*
X0146008Y0089503D02*
X0147075Y0090570D01*
X0149210Y0090570D01*
X0150278Y0089503D01*
X0150278Y0088435D01*
X0123435Y0089503D02*
X0121300Y0089503D01*
X0124483Y0121300D02*
X0128754Y0121300D01*
X0130929Y0121300D02*
X0133064Y0121300D01*
X0131996Y0121300D02*
X0131996Y0125570D01*
X0130929Y0125570D01*
X0131996Y0127705D02*
X0131996Y0128773D01*
X0135226Y0125570D02*
X0138428Y0125570D01*
X0139496Y0124503D01*
X0139496Y0121300D01*
X0141671Y0122368D02*
X0141671Y0124503D01*
X0142739Y0125570D01*
X0144874Y0125570D01*
X0145942Y0124503D01*
X0145942Y0123435D01*
X0141671Y0123435D01*
X0141671Y0122368D02*
X0142739Y0121300D01*
X0144874Y0121300D01*
X0135226Y0121300D02*
X0135226Y0125570D01*
X0124483Y0127705D02*
X0124483Y0121300D01*
X0206632Y0109205D02*
X0206632Y0102800D01*
X0210902Y0102800D02*
X0210902Y0109205D01*
X0208767Y0107070D01*
X0206632Y0109205D01*
X0213077Y0107070D02*
X0213077Y0103868D01*
X0214145Y0102800D01*
X0217348Y0102800D01*
X0217348Y0107070D01*
X0219523Y0107070D02*
X0223793Y0102800D01*
X0219523Y0102800D02*
X0223793Y0107070D01*
D13*
X0198598Y0110331D02*
X0198598Y0101669D01*
X0198598Y0093402D02*
X0173402Y0093402D01*
X0173402Y0118598D01*
X0198598Y0118598D01*
X0198598Y0093402D01*
X0190331Y0093402D02*
X0181669Y0093402D01*
X0173402Y0101669D02*
X0173402Y0110331D01*
X0181669Y0118598D02*
X0190331Y0118598D01*
X0179307Y0106000D02*
X0179309Y0106164D01*
X0179315Y0106328D01*
X0179325Y0106492D01*
X0179339Y0106656D01*
X0179357Y0106819D01*
X0179379Y0106982D01*
X0179406Y0107144D01*
X0179436Y0107306D01*
X0179470Y0107466D01*
X0179508Y0107626D01*
X0179549Y0107785D01*
X0179595Y0107943D01*
X0179645Y0108099D01*
X0179698Y0108255D01*
X0179755Y0108409D01*
X0179816Y0108561D01*
X0179881Y0108712D01*
X0179950Y0108862D01*
X0180022Y0109009D01*
X0180097Y0109155D01*
X0180177Y0109299D01*
X0180259Y0109441D01*
X0180345Y0109581D01*
X0180435Y0109718D01*
X0180528Y0109854D01*
X0180624Y0109987D01*
X0180724Y0110118D01*
X0180826Y0110246D01*
X0180932Y0110372D01*
X0181041Y0110495D01*
X0181153Y0110615D01*
X0181267Y0110733D01*
X0181385Y0110847D01*
X0181505Y0110959D01*
X0181628Y0111068D01*
X0181754Y0111174D01*
X0181882Y0111276D01*
X0182013Y0111376D01*
X0182146Y0111472D01*
X0182282Y0111565D01*
X0182419Y0111655D01*
X0182559Y0111741D01*
X0182701Y0111823D01*
X0182845Y0111903D01*
X0182991Y0111978D01*
X0183138Y0112050D01*
X0183288Y0112119D01*
X0183439Y0112184D01*
X0183591Y0112245D01*
X0183745Y0112302D01*
X0183901Y0112355D01*
X0184057Y0112405D01*
X0184215Y0112451D01*
X0184374Y0112492D01*
X0184534Y0112530D01*
X0184694Y0112564D01*
X0184856Y0112594D01*
X0185018Y0112621D01*
X0185181Y0112643D01*
X0185344Y0112661D01*
X0185508Y0112675D01*
X0185672Y0112685D01*
X0185836Y0112691D01*
X0186000Y0112693D01*
X0186164Y0112691D01*
X0186328Y0112685D01*
X0186492Y0112675D01*
X0186656Y0112661D01*
X0186819Y0112643D01*
X0186982Y0112621D01*
X0187144Y0112594D01*
X0187306Y0112564D01*
X0187466Y0112530D01*
X0187626Y0112492D01*
X0187785Y0112451D01*
X0187943Y0112405D01*
X0188099Y0112355D01*
X0188255Y0112302D01*
X0188409Y0112245D01*
X0188561Y0112184D01*
X0188712Y0112119D01*
X0188862Y0112050D01*
X0189009Y0111978D01*
X0189155Y0111903D01*
X0189299Y0111823D01*
X0189441Y0111741D01*
X0189581Y0111655D01*
X0189718Y0111565D01*
X0189854Y0111472D01*
X0189987Y0111376D01*
X0190118Y0111276D01*
X0190246Y0111174D01*
X0190372Y0111068D01*
X0190495Y0110959D01*
X0190615Y0110847D01*
X0190733Y0110733D01*
X0190847Y0110615D01*
X0190959Y0110495D01*
X0191068Y0110372D01*
X0191174Y0110246D01*
X0191276Y0110118D01*
X0191376Y0109987D01*
X0191472Y0109854D01*
X0191565Y0109718D01*
X0191655Y0109581D01*
X0191741Y0109441D01*
X0191823Y0109299D01*
X0191903Y0109155D01*
X0191978Y0109009D01*
X0192050Y0108862D01*
X0192119Y0108712D01*
X0192184Y0108561D01*
X0192245Y0108409D01*
X0192302Y0108255D01*
X0192355Y0108099D01*
X0192405Y0107943D01*
X0192451Y0107785D01*
X0192492Y0107626D01*
X0192530Y0107466D01*
X0192564Y0107306D01*
X0192594Y0107144D01*
X0192621Y0106982D01*
X0192643Y0106819D01*
X0192661Y0106656D01*
X0192675Y0106492D01*
X0192685Y0106328D01*
X0192691Y0106164D01*
X0192693Y0106000D01*
X0192691Y0105836D01*
X0192685Y0105672D01*
X0192675Y0105508D01*
X0192661Y0105344D01*
X0192643Y0105181D01*
X0192621Y0105018D01*
X0192594Y0104856D01*
X0192564Y0104694D01*
X0192530Y0104534D01*
X0192492Y0104374D01*
X0192451Y0104215D01*
X0192405Y0104057D01*
X0192355Y0103901D01*
X0192302Y0103745D01*
X0192245Y0103591D01*
X0192184Y0103439D01*
X0192119Y0103288D01*
X0192050Y0103138D01*
X0191978Y0102991D01*
X0191903Y0102845D01*
X0191823Y0102701D01*
X0191741Y0102559D01*
X0191655Y0102419D01*
X0191565Y0102282D01*
X0191472Y0102146D01*
X0191376Y0102013D01*
X0191276Y0101882D01*
X0191174Y0101754D01*
X0191068Y0101628D01*
X0190959Y0101505D01*
X0190847Y0101385D01*
X0190733Y0101267D01*
X0190615Y0101153D01*
X0190495Y0101041D01*
X0190372Y0100932D01*
X0190246Y0100826D01*
X0190118Y0100724D01*
X0189987Y0100624D01*
X0189854Y0100528D01*
X0189718Y0100435D01*
X0189581Y0100345D01*
X0189441Y0100259D01*
X0189299Y0100177D01*
X0189155Y0100097D01*
X0189009Y0100022D01*
X0188862Y0099950D01*
X0188712Y0099881D01*
X0188561Y0099816D01*
X0188409Y0099755D01*
X0188255Y0099698D01*
X0188099Y0099645D01*
X0187943Y0099595D01*
X0187785Y0099549D01*
X0187626Y0099508D01*
X0187466Y0099470D01*
X0187306Y0099436D01*
X0187144Y0099406D01*
X0186982Y0099379D01*
X0186819Y0099357D01*
X0186656Y0099339D01*
X0186492Y0099325D01*
X0186328Y0099315D01*
X0186164Y0099309D01*
X0186000Y0099307D01*
X0185836Y0099309D01*
X0185672Y0099315D01*
X0185508Y0099325D01*
X0185344Y0099339D01*
X0185181Y0099357D01*
X0185018Y0099379D01*
X0184856Y0099406D01*
X0184694Y0099436D01*
X0184534Y0099470D01*
X0184374Y0099508D01*
X0184215Y0099549D01*
X0184057Y0099595D01*
X0183901Y0099645D01*
X0183745Y0099698D01*
X0183591Y0099755D01*
X0183439Y0099816D01*
X0183288Y0099881D01*
X0183138Y0099950D01*
X0182991Y0100022D01*
X0182845Y0100097D01*
X0182701Y0100177D01*
X0182559Y0100259D01*
X0182419Y0100345D01*
X0182282Y0100435D01*
X0182146Y0100528D01*
X0182013Y0100624D01*
X0181882Y0100724D01*
X0181754Y0100826D01*
X0181628Y0100932D01*
X0181505Y0101041D01*
X0181385Y0101153D01*
X0181267Y0101267D01*
X0181153Y0101385D01*
X0181041Y0101505D01*
X0180932Y0101628D01*
X0180826Y0101754D01*
X0180724Y0101882D01*
X0180624Y0102013D01*
X0180528Y0102146D01*
X0180435Y0102282D01*
X0180345Y0102419D01*
X0180259Y0102559D01*
X0180177Y0102701D01*
X0180097Y0102845D01*
X0180022Y0102991D01*
X0179950Y0103138D01*
X0179881Y0103288D01*
X0179816Y0103439D01*
X0179755Y0103591D01*
X0179698Y0103745D01*
X0179645Y0103901D01*
X0179595Y0104057D01*
X0179549Y0104215D01*
X0179508Y0104374D01*
X0179470Y0104534D01*
X0179436Y0104694D01*
X0179406Y0104856D01*
X0179379Y0105018D01*
X0179357Y0105181D01*
X0179339Y0105344D01*
X0179325Y0105508D01*
X0179315Y0105672D01*
X0179309Y0105836D01*
X0179307Y0106000D01*
X0173402Y0106000D02*
X0173406Y0106309D01*
X0173417Y0106618D01*
X0173436Y0106927D01*
X0173463Y0107235D01*
X0173497Y0107542D01*
X0173538Y0107849D01*
X0173587Y0108154D01*
X0173644Y0108458D01*
X0173708Y0108760D01*
X0173780Y0109061D01*
X0173858Y0109360D01*
X0173944Y0109657D01*
X0174038Y0109952D01*
X0174138Y0110244D01*
X0174246Y0110534D01*
X0174361Y0110821D01*
X0174483Y0111105D01*
X0174612Y0111386D01*
X0174747Y0111664D01*
X0174890Y0111939D01*
X0175039Y0112210D01*
X0175194Y0112477D01*
X0175357Y0112740D01*
X0175525Y0112999D01*
X0175700Y0113254D01*
X0175881Y0113505D01*
X0176068Y0113751D01*
X0176262Y0113992D01*
X0176461Y0114229D01*
X0176665Y0114460D01*
X0176876Y0114687D01*
X0177092Y0114908D01*
X0177313Y0115124D01*
X0177540Y0115335D01*
X0177771Y0115539D01*
X0178008Y0115738D01*
X0178249Y0115932D01*
X0178495Y0116119D01*
X0178746Y0116300D01*
X0179001Y0116475D01*
X0179260Y0116643D01*
X0179523Y0116806D01*
X0179790Y0116961D01*
X0180061Y0117110D01*
X0180336Y0117253D01*
X0180614Y0117388D01*
X0180895Y0117517D01*
X0181179Y0117639D01*
X0181466Y0117754D01*
X0181756Y0117862D01*
X0182048Y0117962D01*
X0182343Y0118056D01*
X0182640Y0118142D01*
X0182939Y0118220D01*
X0183240Y0118292D01*
X0183542Y0118356D01*
X0183846Y0118413D01*
X0184151Y0118462D01*
X0184458Y0118503D01*
X0184765Y0118537D01*
X0185073Y0118564D01*
X0185382Y0118583D01*
X0185691Y0118594D01*
X0186000Y0118598D01*
X0186309Y0118594D01*
X0186618Y0118583D01*
X0186927Y0118564D01*
X0187235Y0118537D01*
X0187542Y0118503D01*
X0187849Y0118462D01*
X0188154Y0118413D01*
X0188458Y0118356D01*
X0188760Y0118292D01*
X0189061Y0118220D01*
X0189360Y0118142D01*
X0189657Y0118056D01*
X0189952Y0117962D01*
X0190244Y0117862D01*
X0190534Y0117754D01*
X0190821Y0117639D01*
X0191105Y0117517D01*
X0191386Y0117388D01*
X0191664Y0117253D01*
X0191939Y0117110D01*
X0192210Y0116961D01*
X0192477Y0116806D01*
X0192740Y0116643D01*
X0192999Y0116475D01*
X0193254Y0116300D01*
X0193505Y0116119D01*
X0193751Y0115932D01*
X0193992Y0115738D01*
X0194229Y0115539D01*
X0194460Y0115335D01*
X0194687Y0115124D01*
X0194908Y0114908D01*
X0195124Y0114687D01*
X0195335Y0114460D01*
X0195539Y0114229D01*
X0195738Y0113992D01*
X0195932Y0113751D01*
X0196119Y0113505D01*
X0196300Y0113254D01*
X0196475Y0112999D01*
X0196643Y0112740D01*
X0196806Y0112477D01*
X0196961Y0112210D01*
X0197110Y0111939D01*
X0197253Y0111664D01*
X0197388Y0111386D01*
X0197517Y0111105D01*
X0197639Y0110821D01*
X0197754Y0110534D01*
X0197862Y0110244D01*
X0197962Y0109952D01*
X0198056Y0109657D01*
X0198142Y0109360D01*
X0198220Y0109061D01*
X0198292Y0108760D01*
X0198356Y0108458D01*
X0198413Y0108154D01*
X0198462Y0107849D01*
X0198503Y0107542D01*
X0198537Y0107235D01*
X0198564Y0106927D01*
X0198583Y0106618D01*
X0198594Y0106309D01*
X0198598Y0106000D01*
X0198594Y0105691D01*
X0198583Y0105382D01*
X0198564Y0105073D01*
X0198537Y0104765D01*
X0198503Y0104458D01*
X0198462Y0104151D01*
X0198413Y0103846D01*
X0198356Y0103542D01*
X0198292Y0103240D01*
X0198220Y0102939D01*
X0198142Y0102640D01*
X0198056Y0102343D01*
X0197962Y0102048D01*
X0197862Y0101756D01*
X0197754Y0101466D01*
X0197639Y0101179D01*
X0197517Y0100895D01*
X0197388Y0100614D01*
X0197253Y0100336D01*
X0197110Y0100061D01*
X0196961Y0099790D01*
X0196806Y0099523D01*
X0196643Y0099260D01*
X0196475Y0099001D01*
X0196300Y0098746D01*
X0196119Y0098495D01*
X0195932Y0098249D01*
X0195738Y0098008D01*
X0195539Y0097771D01*
X0195335Y0097540D01*
X0195124Y0097313D01*
X0194908Y0097092D01*
X0194687Y0096876D01*
X0194460Y0096665D01*
X0194229Y0096461D01*
X0193992Y0096262D01*
X0193751Y0096068D01*
X0193505Y0095881D01*
X0193254Y0095700D01*
X0192999Y0095525D01*
X0192740Y0095357D01*
X0192477Y0095194D01*
X0192210Y0095039D01*
X0191939Y0094890D01*
X0191664Y0094747D01*
X0191386Y0094612D01*
X0191105Y0094483D01*
X0190821Y0094361D01*
X0190534Y0094246D01*
X0190244Y0094138D01*
X0189952Y0094038D01*
X0189657Y0093944D01*
X0189360Y0093858D01*
X0189061Y0093780D01*
X0188760Y0093708D01*
X0188458Y0093644D01*
X0188154Y0093587D01*
X0187849Y0093538D01*
X0187542Y0093497D01*
X0187235Y0093463D01*
X0186927Y0093436D01*
X0186618Y0093417D01*
X0186309Y0093406D01*
X0186000Y0093402D01*
X0185691Y0093406D01*
X0185382Y0093417D01*
X0185073Y0093436D01*
X0184765Y0093463D01*
X0184458Y0093497D01*
X0184151Y0093538D01*
X0183846Y0093587D01*
X0183542Y0093644D01*
X0183240Y0093708D01*
X0182939Y0093780D01*
X0182640Y0093858D01*
X0182343Y0093944D01*
X0182048Y0094038D01*
X0181756Y0094138D01*
X0181466Y0094246D01*
X0181179Y0094361D01*
X0180895Y0094483D01*
X0180614Y0094612D01*
X0180336Y0094747D01*
X0180061Y0094890D01*
X0179790Y0095039D01*
X0179523Y0095194D01*
X0179260Y0095357D01*
X0179001Y0095525D01*
X0178746Y0095700D01*
X0178495Y0095881D01*
X0178249Y0096068D01*
X0178008Y0096262D01*
X0177771Y0096461D01*
X0177540Y0096665D01*
X0177313Y0096876D01*
X0177092Y0097092D01*
X0176876Y0097313D01*
X0176665Y0097540D01*
X0176461Y0097771D01*
X0176262Y0098008D01*
X0176068Y0098249D01*
X0175881Y0098495D01*
X0175700Y0098746D01*
X0175525Y0099001D01*
X0175357Y0099260D01*
X0175194Y0099523D01*
X0175039Y0099790D01*
X0174890Y0100061D01*
X0174747Y0100336D01*
X0174612Y0100614D01*
X0174483Y0100895D01*
X0174361Y0101179D01*
X0174246Y0101466D01*
X0174138Y0101756D01*
X0174038Y0102048D01*
X0173944Y0102343D01*
X0173858Y0102640D01*
X0173780Y0102939D01*
X0173708Y0103240D01*
X0173644Y0103542D01*
X0173587Y0103846D01*
X0173538Y0104151D01*
X0173497Y0104458D01*
X0173463Y0104765D01*
X0173436Y0105073D01*
X0173417Y0105382D01*
X0173406Y0105691D01*
X0173402Y0106000D01*
X0203402Y0068598D02*
X0203402Y0043402D01*
X0228598Y0043402D01*
X0228598Y0068598D01*
X0203402Y0068598D01*
X0212063Y0068598D02*
X0220331Y0068598D01*
X0228598Y0059937D02*
X0228598Y0052457D01*
X0219937Y0043402D02*
X0212063Y0043402D01*
X0203402Y0052457D02*
X0203402Y0059937D01*
X0208913Y0056000D02*
X0208915Y0056174D01*
X0208922Y0056348D01*
X0208932Y0056521D01*
X0208947Y0056695D01*
X0208966Y0056868D01*
X0208990Y0057040D01*
X0209017Y0057212D01*
X0209049Y0057383D01*
X0209085Y0057553D01*
X0209125Y0057722D01*
X0209170Y0057890D01*
X0209218Y0058057D01*
X0209271Y0058223D01*
X0209327Y0058388D01*
X0209388Y0058551D01*
X0209452Y0058712D01*
X0209521Y0058872D01*
X0209593Y0059030D01*
X0209670Y0059186D01*
X0209750Y0059341D01*
X0209834Y0059493D01*
X0209921Y0059643D01*
X0210013Y0059792D01*
X0210107Y0059937D01*
X0210206Y0060081D01*
X0210308Y0060222D01*
X0210413Y0060360D01*
X0210522Y0060496D01*
X0210634Y0060629D01*
X0210749Y0060759D01*
X0210867Y0060887D01*
X0210989Y0061011D01*
X0211113Y0061133D01*
X0211241Y0061251D01*
X0211371Y0061366D01*
X0211504Y0061478D01*
X0211640Y0061587D01*
X0211778Y0061692D01*
X0211919Y0061794D01*
X0212063Y0061893D01*
X0212208Y0061987D01*
X0212357Y0062079D01*
X0212507Y0062166D01*
X0212659Y0062250D01*
X0212814Y0062330D01*
X0212970Y0062407D01*
X0213128Y0062479D01*
X0213288Y0062548D01*
X0213449Y0062612D01*
X0213612Y0062673D01*
X0213777Y0062729D01*
X0213943Y0062782D01*
X0214110Y0062830D01*
X0214278Y0062875D01*
X0214447Y0062915D01*
X0214617Y0062951D01*
X0214788Y0062983D01*
X0214960Y0063010D01*
X0215132Y0063034D01*
X0215305Y0063053D01*
X0215479Y0063068D01*
X0215652Y0063078D01*
X0215826Y0063085D01*
X0216000Y0063087D01*
X0216174Y0063085D01*
X0216348Y0063078D01*
X0216521Y0063068D01*
X0216695Y0063053D01*
X0216868Y0063034D01*
X0217040Y0063010D01*
X0217212Y0062983D01*
X0217383Y0062951D01*
X0217553Y0062915D01*
X0217722Y0062875D01*
X0217890Y0062830D01*
X0218057Y0062782D01*
X0218223Y0062729D01*
X0218388Y0062673D01*
X0218551Y0062612D01*
X0218712Y0062548D01*
X0218872Y0062479D01*
X0219030Y0062407D01*
X0219186Y0062330D01*
X0219341Y0062250D01*
X0219493Y0062166D01*
X0219643Y0062079D01*
X0219792Y0061987D01*
X0219937Y0061893D01*
X0220081Y0061794D01*
X0220222Y0061692D01*
X0220360Y0061587D01*
X0220496Y0061478D01*
X0220629Y0061366D01*
X0220759Y0061251D01*
X0220887Y0061133D01*
X0221011Y0061011D01*
X0221133Y0060887D01*
X0221251Y0060759D01*
X0221366Y0060629D01*
X0221478Y0060496D01*
X0221587Y0060360D01*
X0221692Y0060222D01*
X0221794Y0060081D01*
X0221893Y0059937D01*
X0221987Y0059792D01*
X0222079Y0059643D01*
X0222166Y0059493D01*
X0222250Y0059341D01*
X0222330Y0059186D01*
X0222407Y0059030D01*
X0222479Y0058872D01*
X0222548Y0058712D01*
X0222612Y0058551D01*
X0222673Y0058388D01*
X0222729Y0058223D01*
X0222782Y0058057D01*
X0222830Y0057890D01*
X0222875Y0057722D01*
X0222915Y0057553D01*
X0222951Y0057383D01*
X0222983Y0057212D01*
X0223010Y0057040D01*
X0223034Y0056868D01*
X0223053Y0056695D01*
X0223068Y0056521D01*
X0223078Y0056348D01*
X0223085Y0056174D01*
X0223087Y0056000D01*
X0223085Y0055826D01*
X0223078Y0055652D01*
X0223068Y0055479D01*
X0223053Y0055305D01*
X0223034Y0055132D01*
X0223010Y0054960D01*
X0222983Y0054788D01*
X0222951Y0054617D01*
X0222915Y0054447D01*
X0222875Y0054278D01*
X0222830Y0054110D01*
X0222782Y0053943D01*
X0222729Y0053777D01*
X0222673Y0053612D01*
X0222612Y0053449D01*
X0222548Y0053288D01*
X0222479Y0053128D01*
X0222407Y0052970D01*
X0222330Y0052814D01*
X0222250Y0052659D01*
X0222166Y0052507D01*
X0222079Y0052357D01*
X0221987Y0052208D01*
X0221893Y0052063D01*
X0221794Y0051919D01*
X0221692Y0051778D01*
X0221587Y0051640D01*
X0221478Y0051504D01*
X0221366Y0051371D01*
X0221251Y0051241D01*
X0221133Y0051113D01*
X0221011Y0050989D01*
X0220887Y0050867D01*
X0220759Y0050749D01*
X0220629Y0050634D01*
X0220496Y0050522D01*
X0220360Y0050413D01*
X0220222Y0050308D01*
X0220081Y0050206D01*
X0219937Y0050107D01*
X0219792Y0050013D01*
X0219643Y0049921D01*
X0219493Y0049834D01*
X0219341Y0049750D01*
X0219186Y0049670D01*
X0219030Y0049593D01*
X0218872Y0049521D01*
X0218712Y0049452D01*
X0218551Y0049388D01*
X0218388Y0049327D01*
X0218223Y0049271D01*
X0218057Y0049218D01*
X0217890Y0049170D01*
X0217722Y0049125D01*
X0217553Y0049085D01*
X0217383Y0049049D01*
X0217212Y0049017D01*
X0217040Y0048990D01*
X0216868Y0048966D01*
X0216695Y0048947D01*
X0216521Y0048932D01*
X0216348Y0048922D01*
X0216174Y0048915D01*
X0216000Y0048913D01*
X0215826Y0048915D01*
X0215652Y0048922D01*
X0215479Y0048932D01*
X0215305Y0048947D01*
X0215132Y0048966D01*
X0214960Y0048990D01*
X0214788Y0049017D01*
X0214617Y0049049D01*
X0214447Y0049085D01*
X0214278Y0049125D01*
X0214110Y0049170D01*
X0213943Y0049218D01*
X0213777Y0049271D01*
X0213612Y0049327D01*
X0213449Y0049388D01*
X0213288Y0049452D01*
X0213128Y0049521D01*
X0212970Y0049593D01*
X0212814Y0049670D01*
X0212659Y0049750D01*
X0212507Y0049834D01*
X0212357Y0049921D01*
X0212208Y0050013D01*
X0212063Y0050107D01*
X0211919Y0050206D01*
X0211778Y0050308D01*
X0211640Y0050413D01*
X0211504Y0050522D01*
X0211371Y0050634D01*
X0211241Y0050749D01*
X0211113Y0050867D01*
X0210989Y0050989D01*
X0210867Y0051113D01*
X0210749Y0051241D01*
X0210634Y0051371D01*
X0210522Y0051504D01*
X0210413Y0051640D01*
X0210308Y0051778D01*
X0210206Y0051919D01*
X0210107Y0052063D01*
X0210013Y0052208D01*
X0209921Y0052357D01*
X0209834Y0052507D01*
X0209750Y0052659D01*
X0209670Y0052814D01*
X0209593Y0052970D01*
X0209521Y0053128D01*
X0209452Y0053288D01*
X0209388Y0053449D01*
X0209327Y0053612D01*
X0209271Y0053777D01*
X0209218Y0053943D01*
X0209170Y0054110D01*
X0209125Y0054278D01*
X0209085Y0054447D01*
X0209049Y0054617D01*
X0209017Y0054788D01*
X0208990Y0054960D01*
X0208966Y0055132D01*
X0208947Y0055305D01*
X0208932Y0055479D01*
X0208922Y0055652D01*
X0208915Y0055826D01*
X0208913Y0056000D01*
X0208500Y0016000D02*
X0213500Y0016000D01*
X0216000Y0013500D01*
X0218500Y0016000D01*
X0223500Y0016000D01*
X0226000Y0013500D01*
X0228500Y0016000D01*
X0233500Y0016000D01*
X0236000Y0013500D01*
X0238500Y0016000D01*
X0243500Y0016000D01*
X0246000Y0013500D01*
X0248500Y0016000D01*
X0253500Y0016000D01*
X0256000Y0013500D01*
X0256000Y0008500D01*
X0253500Y0006000D01*
X0248500Y0006000D01*
X0246000Y0008500D01*
X0243500Y0006000D01*
X0238500Y0006000D01*
X0236000Y0008500D01*
X0233500Y0006000D01*
X0228500Y0006000D01*
X0226000Y0008500D01*
X0223500Y0006000D01*
X0218500Y0006000D01*
X0216000Y0008500D01*
X0213500Y0006000D01*
X0208500Y0006000D01*
X0206000Y0008500D01*
X0203500Y0006000D01*
X0198500Y0006000D01*
X0196000Y0008500D01*
X0196000Y0013500D01*
X0198500Y0016000D01*
X0203500Y0016000D01*
X0206000Y0013500D01*
X0208500Y0016000D01*
X0186000Y0013500D02*
X0186000Y0008500D01*
X0183500Y0006000D01*
X0178500Y0006000D01*
X0176000Y0008500D01*
X0173500Y0006000D01*
X0168500Y0006000D01*
X0166000Y0008500D01*
X0163500Y0006000D01*
X0158500Y0006000D01*
X0156000Y0008500D01*
X0153500Y0006000D01*
X0148500Y0006000D01*
X0146000Y0008500D01*
X0143500Y0006000D01*
X0138500Y0006000D01*
X0136000Y0008500D01*
X0133500Y0006000D01*
X0128500Y0006000D01*
X0126000Y0008500D01*
X0123500Y0006000D01*
X0118500Y0006000D01*
X0116000Y0008500D01*
X0113500Y0006000D01*
X0108500Y0006000D01*
X0106000Y0008500D01*
X0106000Y0013500D01*
X0108500Y0016000D01*
X0113500Y0016000D01*
X0116000Y0013500D01*
X0118500Y0016000D01*
X0123500Y0016000D01*
X0126000Y0013500D01*
X0128500Y0016000D01*
X0133500Y0016000D01*
X0136000Y0013500D01*
X0138500Y0016000D01*
X0143500Y0016000D01*
X0146000Y0013500D01*
X0148500Y0016000D01*
X0153500Y0016000D01*
X0156000Y0013500D01*
X0158500Y0016000D01*
X0163500Y0016000D01*
X0166000Y0013500D01*
X0168500Y0016000D01*
X0173500Y0016000D01*
X0176000Y0013500D01*
X0178500Y0016000D01*
X0183500Y0016000D01*
X0186000Y0013500D01*
X0071197Y0084504D02*
X0071199Y0084601D01*
X0071205Y0084698D01*
X0071215Y0084794D01*
X0071229Y0084890D01*
X0071247Y0084986D01*
X0071268Y0085080D01*
X0071294Y0085174D01*
X0071323Y0085266D01*
X0071357Y0085357D01*
X0071393Y0085447D01*
X0071434Y0085535D01*
X0071478Y0085621D01*
X0071526Y0085706D01*
X0071577Y0085788D01*
X0071631Y0085869D01*
X0071689Y0085947D01*
X0071750Y0086022D01*
X0071813Y0086095D01*
X0071880Y0086166D01*
X0071950Y0086233D01*
X0072022Y0086298D01*
X0072097Y0086359D01*
X0072175Y0086418D01*
X0072254Y0086473D01*
X0072336Y0086525D01*
X0072420Y0086573D01*
X0072506Y0086618D01*
X0072594Y0086660D01*
X0072683Y0086698D01*
X0072774Y0086732D01*
X0072866Y0086762D01*
X0072959Y0086789D01*
X0073054Y0086811D01*
X0073149Y0086830D01*
X0073245Y0086845D01*
X0073341Y0086856D01*
X0073438Y0086863D01*
X0073535Y0086866D01*
X0073632Y0086865D01*
X0073729Y0086860D01*
X0073825Y0086851D01*
X0073921Y0086838D01*
X0074017Y0086821D01*
X0074112Y0086800D01*
X0074205Y0086776D01*
X0074298Y0086747D01*
X0074390Y0086715D01*
X0074480Y0086679D01*
X0074568Y0086640D01*
X0074655Y0086596D01*
X0074740Y0086550D01*
X0074823Y0086499D01*
X0074904Y0086446D01*
X0074982Y0086389D01*
X0075059Y0086329D01*
X0075132Y0086266D01*
X0075203Y0086200D01*
X0075271Y0086131D01*
X0075337Y0086059D01*
X0075399Y0085985D01*
X0075458Y0085908D01*
X0075514Y0085829D01*
X0075567Y0085747D01*
X0075617Y0085664D01*
X0075662Y0085578D01*
X0075705Y0085491D01*
X0075744Y0085402D01*
X0075779Y0085312D01*
X0075810Y0085220D01*
X0075837Y0085127D01*
X0075861Y0085033D01*
X0075881Y0084938D01*
X0075897Y0084842D01*
X0075909Y0084746D01*
X0075917Y0084649D01*
X0075921Y0084552D01*
X0075921Y0084456D01*
X0075917Y0084359D01*
X0075909Y0084262D01*
X0075897Y0084166D01*
X0075881Y0084070D01*
X0075861Y0083975D01*
X0075837Y0083881D01*
X0075810Y0083788D01*
X0075779Y0083696D01*
X0075744Y0083606D01*
X0075705Y0083517D01*
X0075662Y0083430D01*
X0075617Y0083344D01*
X0075567Y0083261D01*
X0075514Y0083179D01*
X0075458Y0083100D01*
X0075399Y0083023D01*
X0075337Y0082949D01*
X0075271Y0082877D01*
X0075203Y0082808D01*
X0075132Y0082742D01*
X0075059Y0082679D01*
X0074982Y0082619D01*
X0074904Y0082562D01*
X0074823Y0082509D01*
X0074740Y0082458D01*
X0074655Y0082412D01*
X0074568Y0082368D01*
X0074480Y0082329D01*
X0074390Y0082293D01*
X0074298Y0082261D01*
X0074205Y0082232D01*
X0074112Y0082208D01*
X0074017Y0082187D01*
X0073921Y0082170D01*
X0073825Y0082157D01*
X0073729Y0082148D01*
X0073632Y0082143D01*
X0073535Y0082142D01*
X0073438Y0082145D01*
X0073341Y0082152D01*
X0073245Y0082163D01*
X0073149Y0082178D01*
X0073054Y0082197D01*
X0072959Y0082219D01*
X0072866Y0082246D01*
X0072774Y0082276D01*
X0072683Y0082310D01*
X0072594Y0082348D01*
X0072506Y0082390D01*
X0072420Y0082435D01*
X0072336Y0082483D01*
X0072254Y0082535D01*
X0072175Y0082590D01*
X0072097Y0082649D01*
X0072022Y0082710D01*
X0071950Y0082775D01*
X0071880Y0082842D01*
X0071813Y0082913D01*
X0071750Y0082986D01*
X0071689Y0083061D01*
X0071631Y0083139D01*
X0071577Y0083220D01*
X0071526Y0083302D01*
X0071478Y0083387D01*
X0071434Y0083473D01*
X0071393Y0083561D01*
X0071357Y0083651D01*
X0071323Y0083742D01*
X0071294Y0083834D01*
X0071268Y0083928D01*
X0071247Y0084022D01*
X0071229Y0084118D01*
X0071215Y0084214D01*
X0071205Y0084310D01*
X0071199Y0084407D01*
X0071197Y0084504D01*
X0064815Y0087654D02*
X0064817Y0087760D01*
X0064823Y0087866D01*
X0064833Y0087972D01*
X0064847Y0088077D01*
X0064864Y0088182D01*
X0064886Y0088286D01*
X0064912Y0088389D01*
X0064941Y0088491D01*
X0064974Y0088592D01*
X0065011Y0088691D01*
X0065052Y0088789D01*
X0065096Y0088886D01*
X0065144Y0088981D01*
X0065195Y0089074D01*
X0065250Y0089164D01*
X0065308Y0089253D01*
X0065370Y0089340D01*
X0065434Y0089424D01*
X0065502Y0089506D01*
X0065573Y0089585D01*
X0065647Y0089661D01*
X0065723Y0089735D01*
X0065802Y0089806D01*
X0065884Y0089874D01*
X0065968Y0089938D01*
X0066055Y0090000D01*
X0066144Y0090058D01*
X0066235Y0090113D01*
X0066327Y0090164D01*
X0066422Y0090212D01*
X0066519Y0090256D01*
X0066617Y0090297D01*
X0066716Y0090334D01*
X0066817Y0090367D01*
X0066919Y0090396D01*
X0067022Y0090422D01*
X0067126Y0090444D01*
X0067231Y0090461D01*
X0067336Y0090475D01*
X0067442Y0090485D01*
X0067548Y0090491D01*
X0067654Y0090493D01*
X0067760Y0090491D01*
X0067866Y0090485D01*
X0067972Y0090475D01*
X0068077Y0090461D01*
X0068182Y0090444D01*
X0068286Y0090422D01*
X0068389Y0090396D01*
X0068491Y0090367D01*
X0068592Y0090334D01*
X0068691Y0090297D01*
X0068789Y0090256D01*
X0068886Y0090212D01*
X0068981Y0090164D01*
X0069074Y0090113D01*
X0069164Y0090058D01*
X0069253Y0090000D01*
X0069340Y0089938D01*
X0069424Y0089874D01*
X0069506Y0089806D01*
X0069585Y0089735D01*
X0069661Y0089661D01*
X0069735Y0089585D01*
X0069806Y0089506D01*
X0069874Y0089424D01*
X0069938Y0089340D01*
X0070000Y0089253D01*
X0070058Y0089164D01*
X0070113Y0089073D01*
X0070164Y0088981D01*
X0070212Y0088886D01*
X0070256Y0088789D01*
X0070297Y0088691D01*
X0070334Y0088592D01*
X0070367Y0088491D01*
X0070396Y0088389D01*
X0070422Y0088286D01*
X0070444Y0088182D01*
X0070461Y0088077D01*
X0070475Y0087972D01*
X0070485Y0087866D01*
X0070491Y0087760D01*
X0070493Y0087654D01*
X0070491Y0087548D01*
X0070485Y0087442D01*
X0070475Y0087336D01*
X0070461Y0087231D01*
X0070444Y0087126D01*
X0070422Y0087022D01*
X0070396Y0086919D01*
X0070367Y0086817D01*
X0070334Y0086716D01*
X0070297Y0086617D01*
X0070256Y0086519D01*
X0070212Y0086422D01*
X0070164Y0086327D01*
X0070113Y0086234D01*
X0070058Y0086144D01*
X0070000Y0086055D01*
X0069938Y0085968D01*
X0069874Y0085884D01*
X0069806Y0085802D01*
X0069735Y0085723D01*
X0069661Y0085647D01*
X0069585Y0085573D01*
X0069506Y0085502D01*
X0069424Y0085434D01*
X0069340Y0085370D01*
X0069253Y0085308D01*
X0069164Y0085250D01*
X0069073Y0085195D01*
X0068981Y0085144D01*
X0068886Y0085096D01*
X0068789Y0085052D01*
X0068691Y0085011D01*
X0068592Y0084974D01*
X0068491Y0084941D01*
X0068389Y0084912D01*
X0068286Y0084886D01*
X0068182Y0084864D01*
X0068077Y0084847D01*
X0067972Y0084833D01*
X0067866Y0084823D01*
X0067760Y0084817D01*
X0067654Y0084815D01*
X0067548Y0084817D01*
X0067442Y0084823D01*
X0067336Y0084833D01*
X0067231Y0084847D01*
X0067126Y0084864D01*
X0067022Y0084886D01*
X0066919Y0084912D01*
X0066817Y0084941D01*
X0066716Y0084974D01*
X0066617Y0085011D01*
X0066519Y0085052D01*
X0066422Y0085096D01*
X0066327Y0085144D01*
X0066234Y0085195D01*
X0066144Y0085250D01*
X0066055Y0085308D01*
X0065968Y0085370D01*
X0065884Y0085434D01*
X0065802Y0085502D01*
X0065723Y0085573D01*
X0065647Y0085647D01*
X0065573Y0085723D01*
X0065502Y0085802D01*
X0065434Y0085884D01*
X0065370Y0085968D01*
X0065308Y0086055D01*
X0065250Y0086144D01*
X0065195Y0086235D01*
X0065144Y0086327D01*
X0065096Y0086422D01*
X0065052Y0086519D01*
X0065011Y0086617D01*
X0064974Y0086716D01*
X0064941Y0086817D01*
X0064912Y0086919D01*
X0064886Y0087022D01*
X0064864Y0087126D01*
X0064847Y0087231D01*
X0064833Y0087336D01*
X0064823Y0087442D01*
X0064817Y0087548D01*
X0064815Y0087654D01*
X0019145Y0087260D02*
X0019147Y0087366D01*
X0019153Y0087472D01*
X0019163Y0087578D01*
X0019177Y0087683D01*
X0019194Y0087788D01*
X0019216Y0087892D01*
X0019242Y0087995D01*
X0019271Y0088097D01*
X0019304Y0088198D01*
X0019341Y0088297D01*
X0019382Y0088395D01*
X0019426Y0088492D01*
X0019474Y0088587D01*
X0019525Y0088680D01*
X0019580Y0088770D01*
X0019638Y0088859D01*
X0019700Y0088946D01*
X0019764Y0089030D01*
X0019832Y0089112D01*
X0019903Y0089191D01*
X0019977Y0089267D01*
X0020053Y0089341D01*
X0020132Y0089412D01*
X0020214Y0089480D01*
X0020298Y0089544D01*
X0020385Y0089606D01*
X0020474Y0089664D01*
X0020565Y0089719D01*
X0020657Y0089770D01*
X0020752Y0089818D01*
X0020849Y0089862D01*
X0020947Y0089903D01*
X0021046Y0089940D01*
X0021147Y0089973D01*
X0021249Y0090002D01*
X0021352Y0090028D01*
X0021456Y0090050D01*
X0021561Y0090067D01*
X0021666Y0090081D01*
X0021772Y0090091D01*
X0021878Y0090097D01*
X0021984Y0090099D01*
X0022090Y0090097D01*
X0022196Y0090091D01*
X0022302Y0090081D01*
X0022407Y0090067D01*
X0022512Y0090050D01*
X0022616Y0090028D01*
X0022719Y0090002D01*
X0022821Y0089973D01*
X0022922Y0089940D01*
X0023021Y0089903D01*
X0023119Y0089862D01*
X0023216Y0089818D01*
X0023311Y0089770D01*
X0023404Y0089719D01*
X0023494Y0089664D01*
X0023583Y0089606D01*
X0023670Y0089544D01*
X0023754Y0089480D01*
X0023836Y0089412D01*
X0023915Y0089341D01*
X0023991Y0089267D01*
X0024065Y0089191D01*
X0024136Y0089112D01*
X0024204Y0089030D01*
X0024268Y0088946D01*
X0024330Y0088859D01*
X0024388Y0088770D01*
X0024443Y0088679D01*
X0024494Y0088587D01*
X0024542Y0088492D01*
X0024586Y0088395D01*
X0024627Y0088297D01*
X0024664Y0088198D01*
X0024697Y0088097D01*
X0024726Y0087995D01*
X0024752Y0087892D01*
X0024774Y0087788D01*
X0024791Y0087683D01*
X0024805Y0087578D01*
X0024815Y0087472D01*
X0024821Y0087366D01*
X0024823Y0087260D01*
X0024821Y0087154D01*
X0024815Y0087048D01*
X0024805Y0086942D01*
X0024791Y0086837D01*
X0024774Y0086732D01*
X0024752Y0086628D01*
X0024726Y0086525D01*
X0024697Y0086423D01*
X0024664Y0086322D01*
X0024627Y0086223D01*
X0024586Y0086125D01*
X0024542Y0086028D01*
X0024494Y0085933D01*
X0024443Y0085840D01*
X0024388Y0085750D01*
X0024330Y0085661D01*
X0024268Y0085574D01*
X0024204Y0085490D01*
X0024136Y0085408D01*
X0024065Y0085329D01*
X0023991Y0085253D01*
X0023915Y0085179D01*
X0023836Y0085108D01*
X0023754Y0085040D01*
X0023670Y0084976D01*
X0023583Y0084914D01*
X0023494Y0084856D01*
X0023403Y0084801D01*
X0023311Y0084750D01*
X0023216Y0084702D01*
X0023119Y0084658D01*
X0023021Y0084617D01*
X0022922Y0084580D01*
X0022821Y0084547D01*
X0022719Y0084518D01*
X0022616Y0084492D01*
X0022512Y0084470D01*
X0022407Y0084453D01*
X0022302Y0084439D01*
X0022196Y0084429D01*
X0022090Y0084423D01*
X0021984Y0084421D01*
X0021878Y0084423D01*
X0021772Y0084429D01*
X0021666Y0084439D01*
X0021561Y0084453D01*
X0021456Y0084470D01*
X0021352Y0084492D01*
X0021249Y0084518D01*
X0021147Y0084547D01*
X0021046Y0084580D01*
X0020947Y0084617D01*
X0020849Y0084658D01*
X0020752Y0084702D01*
X0020657Y0084750D01*
X0020564Y0084801D01*
X0020474Y0084856D01*
X0020385Y0084914D01*
X0020298Y0084976D01*
X0020214Y0085040D01*
X0020132Y0085108D01*
X0020053Y0085179D01*
X0019977Y0085253D01*
X0019903Y0085329D01*
X0019832Y0085408D01*
X0019764Y0085490D01*
X0019700Y0085574D01*
X0019638Y0085661D01*
X0019580Y0085750D01*
X0019525Y0085841D01*
X0019474Y0085933D01*
X0019426Y0086028D01*
X0019382Y0086125D01*
X0019341Y0086223D01*
X0019304Y0086322D01*
X0019271Y0086423D01*
X0019242Y0086525D01*
X0019216Y0086628D01*
X0019194Y0086732D01*
X0019177Y0086837D01*
X0019163Y0086942D01*
X0019153Y0087048D01*
X0019147Y0087154D01*
X0019145Y0087260D01*
X0017500Y0174000D02*
X0016000Y0174000D01*
X0014000Y0176000D01*
X0014000Y0182000D01*
X0014000Y0190047D01*
X0014000Y0190000D02*
X0014000Y0196000D01*
X0016000Y0198000D01*
X0017500Y0198000D01*
X0034500Y0198000D01*
X0036000Y0198000D01*
X0038000Y0196000D01*
X0038000Y0190000D01*
X0038000Y0189929D02*
X0038000Y0182000D01*
X0038000Y0176000D01*
X0036000Y0174000D01*
X0034500Y0174000D01*
X0017500Y0174000D01*
X0016000Y0181000D02*
X0016000Y0184000D01*
X0017500Y0184500D02*
X0016000Y0188000D01*
X0016000Y0191000D01*
X0019000Y0186000D02*
X0019002Y0186172D01*
X0019008Y0186343D01*
X0019019Y0186515D01*
X0019034Y0186686D01*
X0019053Y0186857D01*
X0019076Y0187027D01*
X0019103Y0187197D01*
X0019135Y0187366D01*
X0019170Y0187534D01*
X0019210Y0187701D01*
X0019254Y0187867D01*
X0019301Y0188032D01*
X0019353Y0188196D01*
X0019409Y0188358D01*
X0019469Y0188519D01*
X0019533Y0188679D01*
X0019601Y0188837D01*
X0019672Y0188993D01*
X0019747Y0189147D01*
X0019827Y0189300D01*
X0019909Y0189450D01*
X0019996Y0189599D01*
X0020086Y0189745D01*
X0020180Y0189889D01*
X0020277Y0190031D01*
X0020378Y0190170D01*
X0020482Y0190307D01*
X0020589Y0190441D01*
X0020700Y0190572D01*
X0020813Y0190701D01*
X0020930Y0190827D01*
X0021050Y0190950D01*
X0021173Y0191070D01*
X0021299Y0191187D01*
X0021428Y0191300D01*
X0021559Y0191411D01*
X0021693Y0191518D01*
X0021830Y0191622D01*
X0021969Y0191723D01*
X0022111Y0191820D01*
X0022255Y0191914D01*
X0022401Y0192004D01*
X0022550Y0192091D01*
X0022700Y0192173D01*
X0022853Y0192253D01*
X0023007Y0192328D01*
X0023163Y0192399D01*
X0023321Y0192467D01*
X0023481Y0192531D01*
X0023642Y0192591D01*
X0023804Y0192647D01*
X0023968Y0192699D01*
X0024133Y0192746D01*
X0024299Y0192790D01*
X0024466Y0192830D01*
X0024634Y0192865D01*
X0024803Y0192897D01*
X0024973Y0192924D01*
X0025143Y0192947D01*
X0025314Y0192966D01*
X0025485Y0192981D01*
X0025657Y0192992D01*
X0025828Y0192998D01*
X0026000Y0193000D01*
X0026172Y0192998D01*
X0026343Y0192992D01*
X0026515Y0192981D01*
X0026686Y0192966D01*
X0026857Y0192947D01*
X0027027Y0192924D01*
X0027197Y0192897D01*
X0027366Y0192865D01*
X0027534Y0192830D01*
X0027701Y0192790D01*
X0027867Y0192746D01*
X0028032Y0192699D01*
X0028196Y0192647D01*
X0028358Y0192591D01*
X0028519Y0192531D01*
X0028679Y0192467D01*
X0028837Y0192399D01*
X0028993Y0192328D01*
X0029147Y0192253D01*
X0029300Y0192173D01*
X0029450Y0192091D01*
X0029599Y0192004D01*
X0029745Y0191914D01*
X0029889Y0191820D01*
X0030031Y0191723D01*
X0030170Y0191622D01*
X0030307Y0191518D01*
X0030441Y0191411D01*
X0030572Y0191300D01*
X0030701Y0191187D01*
X0030827Y0191070D01*
X0030950Y0190950D01*
X0031070Y0190827D01*
X0031187Y0190701D01*
X0031300Y0190572D01*
X0031411Y0190441D01*
X0031518Y0190307D01*
X0031622Y0190170D01*
X0031723Y0190031D01*
X0031820Y0189889D01*
X0031914Y0189745D01*
X0032004Y0189599D01*
X0032091Y0189450D01*
X0032173Y0189300D01*
X0032253Y0189147D01*
X0032328Y0188993D01*
X0032399Y0188837D01*
X0032467Y0188679D01*
X0032531Y0188519D01*
X0032591Y0188358D01*
X0032647Y0188196D01*
X0032699Y0188032D01*
X0032746Y0187867D01*
X0032790Y0187701D01*
X0032830Y0187534D01*
X0032865Y0187366D01*
X0032897Y0187197D01*
X0032924Y0187027D01*
X0032947Y0186857D01*
X0032966Y0186686D01*
X0032981Y0186515D01*
X0032992Y0186343D01*
X0032998Y0186172D01*
X0033000Y0186000D01*
X0032998Y0185828D01*
X0032992Y0185657D01*
X0032981Y0185485D01*
X0032966Y0185314D01*
X0032947Y0185143D01*
X0032924Y0184973D01*
X0032897Y0184803D01*
X0032865Y0184634D01*
X0032830Y0184466D01*
X0032790Y0184299D01*
X0032746Y0184133D01*
X0032699Y0183968D01*
X0032647Y0183804D01*
X0032591Y0183642D01*
X0032531Y0183481D01*
X0032467Y0183321D01*
X0032399Y0183163D01*
X0032328Y0183007D01*
X0032253Y0182853D01*
X0032173Y0182700D01*
X0032091Y0182550D01*
X0032004Y0182401D01*
X0031914Y0182255D01*
X0031820Y0182111D01*
X0031723Y0181969D01*
X0031622Y0181830D01*
X0031518Y0181693D01*
X0031411Y0181559D01*
X0031300Y0181428D01*
X0031187Y0181299D01*
X0031070Y0181173D01*
X0030950Y0181050D01*
X0030827Y0180930D01*
X0030701Y0180813D01*
X0030572Y0180700D01*
X0030441Y0180589D01*
X0030307Y0180482D01*
X0030170Y0180378D01*
X0030031Y0180277D01*
X0029889Y0180180D01*
X0029745Y0180086D01*
X0029599Y0179996D01*
X0029450Y0179909D01*
X0029300Y0179827D01*
X0029147Y0179747D01*
X0028993Y0179672D01*
X0028837Y0179601D01*
X0028679Y0179533D01*
X0028519Y0179469D01*
X0028358Y0179409D01*
X0028196Y0179353D01*
X0028032Y0179301D01*
X0027867Y0179254D01*
X0027701Y0179210D01*
X0027534Y0179170D01*
X0027366Y0179135D01*
X0027197Y0179103D01*
X0027027Y0179076D01*
X0026857Y0179053D01*
X0026686Y0179034D01*
X0026515Y0179019D01*
X0026343Y0179008D01*
X0026172Y0179002D01*
X0026000Y0179000D01*
X0025828Y0179002D01*
X0025657Y0179008D01*
X0025485Y0179019D01*
X0025314Y0179034D01*
X0025143Y0179053D01*
X0024973Y0179076D01*
X0024803Y0179103D01*
X0024634Y0179135D01*
X0024466Y0179170D01*
X0024299Y0179210D01*
X0024133Y0179254D01*
X0023968Y0179301D01*
X0023804Y0179353D01*
X0023642Y0179409D01*
X0023481Y0179469D01*
X0023321Y0179533D01*
X0023163Y0179601D01*
X0023007Y0179672D01*
X0022853Y0179747D01*
X0022700Y0179827D01*
X0022550Y0179909D01*
X0022401Y0179996D01*
X0022255Y0180086D01*
X0022111Y0180180D01*
X0021969Y0180277D01*
X0021830Y0180378D01*
X0021693Y0180482D01*
X0021559Y0180589D01*
X0021428Y0180700D01*
X0021299Y0180813D01*
X0021173Y0180930D01*
X0021050Y0181050D01*
X0020930Y0181173D01*
X0020813Y0181299D01*
X0020700Y0181428D01*
X0020589Y0181559D01*
X0020482Y0181693D01*
X0020378Y0181830D01*
X0020277Y0181969D01*
X0020180Y0182111D01*
X0020086Y0182255D01*
X0019996Y0182401D01*
X0019909Y0182550D01*
X0019827Y0182700D01*
X0019747Y0182853D01*
X0019672Y0183007D01*
X0019601Y0183163D01*
X0019533Y0183321D01*
X0019469Y0183481D01*
X0019409Y0183642D01*
X0019353Y0183804D01*
X0019301Y0183968D01*
X0019254Y0184133D01*
X0019210Y0184299D01*
X0019170Y0184466D01*
X0019135Y0184634D01*
X0019103Y0184803D01*
X0019076Y0184973D01*
X0019053Y0185143D01*
X0019034Y0185314D01*
X0019019Y0185485D01*
X0019008Y0185657D01*
X0019002Y0185828D01*
X0019000Y0186000D01*
X0071000Y0198500D02*
X0071000Y0203500D01*
X0073500Y0206000D01*
X0078500Y0206000D01*
X0081000Y0203500D01*
X0083500Y0206000D01*
X0088500Y0206000D01*
X0091000Y0203500D01*
X0093500Y0206000D01*
X0098500Y0206000D01*
X0101000Y0203500D01*
X0103500Y0206000D01*
X0108500Y0206000D01*
X0111000Y0203500D01*
X0113500Y0206000D01*
X0118500Y0206000D01*
X0121000Y0203500D01*
X0123500Y0206000D01*
X0128500Y0206000D01*
X0131000Y0203500D01*
X0133500Y0206000D01*
X0138500Y0206000D01*
X0141000Y0203500D01*
X0143500Y0206000D01*
X0148500Y0206000D01*
X0151000Y0203500D01*
X0153500Y0206000D01*
X0158500Y0206000D01*
X0161000Y0203500D01*
X0163500Y0206000D01*
X0168500Y0206000D01*
X0171000Y0203500D01*
X0171000Y0198500D01*
X0168500Y0196000D01*
X0163500Y0196000D01*
X0161000Y0198500D01*
X0158500Y0196000D01*
X0153500Y0196000D01*
X0151000Y0198500D01*
X0148500Y0196000D01*
X0143500Y0196000D01*
X0141000Y0198500D01*
X0138500Y0196000D01*
X0133500Y0196000D01*
X0131000Y0198500D01*
X0128500Y0196000D01*
X0123500Y0196000D01*
X0121000Y0198500D01*
X0118500Y0196000D01*
X0113500Y0196000D01*
X0111000Y0198500D01*
X0108500Y0196000D01*
X0103500Y0196000D01*
X0101000Y0198500D01*
X0098500Y0196000D01*
X0093500Y0196000D01*
X0091000Y0198500D01*
X0088500Y0196000D01*
X0083500Y0196000D01*
X0081000Y0198500D01*
X0078500Y0196000D01*
X0073500Y0196000D01*
X0071000Y0198500D01*
X0176000Y0198500D02*
X0176000Y0203500D01*
X0178500Y0206000D01*
X0183500Y0206000D01*
X0186000Y0203500D01*
X0188500Y0206000D01*
X0193500Y0206000D01*
X0196000Y0203500D01*
X0198500Y0206000D01*
X0203500Y0206000D01*
X0206000Y0203500D01*
X0208500Y0206000D01*
X0213500Y0206000D01*
X0216000Y0203500D01*
X0218500Y0206000D01*
X0223500Y0206000D01*
X0226000Y0203500D01*
X0228500Y0206000D01*
X0233500Y0206000D01*
X0236000Y0203500D01*
X0238500Y0206000D01*
X0243500Y0206000D01*
X0246000Y0203500D01*
X0248500Y0206000D01*
X0253500Y0206000D01*
X0256000Y0203500D01*
X0256000Y0198500D01*
X0253500Y0196000D01*
X0248500Y0196000D01*
X0246000Y0198500D01*
X0243500Y0196000D01*
X0238500Y0196000D01*
X0236000Y0198500D01*
X0233500Y0196000D01*
X0228500Y0196000D01*
X0226000Y0198500D01*
X0223500Y0196000D01*
X0218500Y0196000D01*
X0216000Y0198500D01*
X0213500Y0196000D01*
X0208500Y0196000D01*
X0206000Y0198500D01*
X0203500Y0196000D01*
X0198500Y0196000D01*
X0196000Y0198500D01*
X0193500Y0196000D01*
X0188500Y0196000D01*
X0186000Y0198500D01*
X0183500Y0196000D01*
X0178500Y0196000D01*
X0176000Y0198500D01*
X0203402Y0168598D02*
X0203402Y0143402D01*
X0228598Y0143402D01*
X0228598Y0168598D01*
X0203402Y0168598D01*
X0212063Y0168598D02*
X0220331Y0168598D01*
X0228598Y0159937D02*
X0228598Y0152457D01*
X0219937Y0143402D02*
X0212063Y0143402D01*
X0203402Y0152457D02*
X0203402Y0159937D01*
X0208913Y0156000D02*
X0208915Y0156174D01*
X0208922Y0156348D01*
X0208932Y0156521D01*
X0208947Y0156695D01*
X0208966Y0156868D01*
X0208990Y0157040D01*
X0209017Y0157212D01*
X0209049Y0157383D01*
X0209085Y0157553D01*
X0209125Y0157722D01*
X0209170Y0157890D01*
X0209218Y0158057D01*
X0209271Y0158223D01*
X0209327Y0158388D01*
X0209388Y0158551D01*
X0209452Y0158712D01*
X0209521Y0158872D01*
X0209593Y0159030D01*
X0209670Y0159186D01*
X0209750Y0159341D01*
X0209834Y0159493D01*
X0209921Y0159643D01*
X0210013Y0159792D01*
X0210107Y0159937D01*
X0210206Y0160081D01*
X0210308Y0160222D01*
X0210413Y0160360D01*
X0210522Y0160496D01*
X0210634Y0160629D01*
X0210749Y0160759D01*
X0210867Y0160887D01*
X0210989Y0161011D01*
X0211113Y0161133D01*
X0211241Y0161251D01*
X0211371Y0161366D01*
X0211504Y0161478D01*
X0211640Y0161587D01*
X0211778Y0161692D01*
X0211919Y0161794D01*
X0212063Y0161893D01*
X0212208Y0161987D01*
X0212357Y0162079D01*
X0212507Y0162166D01*
X0212659Y0162250D01*
X0212814Y0162330D01*
X0212970Y0162407D01*
X0213128Y0162479D01*
X0213288Y0162548D01*
X0213449Y0162612D01*
X0213612Y0162673D01*
X0213777Y0162729D01*
X0213943Y0162782D01*
X0214110Y0162830D01*
X0214278Y0162875D01*
X0214447Y0162915D01*
X0214617Y0162951D01*
X0214788Y0162983D01*
X0214960Y0163010D01*
X0215132Y0163034D01*
X0215305Y0163053D01*
X0215479Y0163068D01*
X0215652Y0163078D01*
X0215826Y0163085D01*
X0216000Y0163087D01*
X0216174Y0163085D01*
X0216348Y0163078D01*
X0216521Y0163068D01*
X0216695Y0163053D01*
X0216868Y0163034D01*
X0217040Y0163010D01*
X0217212Y0162983D01*
X0217383Y0162951D01*
X0217553Y0162915D01*
X0217722Y0162875D01*
X0217890Y0162830D01*
X0218057Y0162782D01*
X0218223Y0162729D01*
X0218388Y0162673D01*
X0218551Y0162612D01*
X0218712Y0162548D01*
X0218872Y0162479D01*
X0219030Y0162407D01*
X0219186Y0162330D01*
X0219341Y0162250D01*
X0219493Y0162166D01*
X0219643Y0162079D01*
X0219792Y0161987D01*
X0219937Y0161893D01*
X0220081Y0161794D01*
X0220222Y0161692D01*
X0220360Y0161587D01*
X0220496Y0161478D01*
X0220629Y0161366D01*
X0220759Y0161251D01*
X0220887Y0161133D01*
X0221011Y0161011D01*
X0221133Y0160887D01*
X0221251Y0160759D01*
X0221366Y0160629D01*
X0221478Y0160496D01*
X0221587Y0160360D01*
X0221692Y0160222D01*
X0221794Y0160081D01*
X0221893Y0159937D01*
X0221987Y0159792D01*
X0222079Y0159643D01*
X0222166Y0159493D01*
X0222250Y0159341D01*
X0222330Y0159186D01*
X0222407Y0159030D01*
X0222479Y0158872D01*
X0222548Y0158712D01*
X0222612Y0158551D01*
X0222673Y0158388D01*
X0222729Y0158223D01*
X0222782Y0158057D01*
X0222830Y0157890D01*
X0222875Y0157722D01*
X0222915Y0157553D01*
X0222951Y0157383D01*
X0222983Y0157212D01*
X0223010Y0157040D01*
X0223034Y0156868D01*
X0223053Y0156695D01*
X0223068Y0156521D01*
X0223078Y0156348D01*
X0223085Y0156174D01*
X0223087Y0156000D01*
X0223085Y0155826D01*
X0223078Y0155652D01*
X0223068Y0155479D01*
X0223053Y0155305D01*
X0223034Y0155132D01*
X0223010Y0154960D01*
X0222983Y0154788D01*
X0222951Y0154617D01*
X0222915Y0154447D01*
X0222875Y0154278D01*
X0222830Y0154110D01*
X0222782Y0153943D01*
X0222729Y0153777D01*
X0222673Y0153612D01*
X0222612Y0153449D01*
X0222548Y0153288D01*
X0222479Y0153128D01*
X0222407Y0152970D01*
X0222330Y0152814D01*
X0222250Y0152659D01*
X0222166Y0152507D01*
X0222079Y0152357D01*
X0221987Y0152208D01*
X0221893Y0152063D01*
X0221794Y0151919D01*
X0221692Y0151778D01*
X0221587Y0151640D01*
X0221478Y0151504D01*
X0221366Y0151371D01*
X0221251Y0151241D01*
X0221133Y0151113D01*
X0221011Y0150989D01*
X0220887Y0150867D01*
X0220759Y0150749D01*
X0220629Y0150634D01*
X0220496Y0150522D01*
X0220360Y0150413D01*
X0220222Y0150308D01*
X0220081Y0150206D01*
X0219937Y0150107D01*
X0219792Y0150013D01*
X0219643Y0149921D01*
X0219493Y0149834D01*
X0219341Y0149750D01*
X0219186Y0149670D01*
X0219030Y0149593D01*
X0218872Y0149521D01*
X0218712Y0149452D01*
X0218551Y0149388D01*
X0218388Y0149327D01*
X0218223Y0149271D01*
X0218057Y0149218D01*
X0217890Y0149170D01*
X0217722Y0149125D01*
X0217553Y0149085D01*
X0217383Y0149049D01*
X0217212Y0149017D01*
X0217040Y0148990D01*
X0216868Y0148966D01*
X0216695Y0148947D01*
X0216521Y0148932D01*
X0216348Y0148922D01*
X0216174Y0148915D01*
X0216000Y0148913D01*
X0215826Y0148915D01*
X0215652Y0148922D01*
X0215479Y0148932D01*
X0215305Y0148947D01*
X0215132Y0148966D01*
X0214960Y0148990D01*
X0214788Y0149017D01*
X0214617Y0149049D01*
X0214447Y0149085D01*
X0214278Y0149125D01*
X0214110Y0149170D01*
X0213943Y0149218D01*
X0213777Y0149271D01*
X0213612Y0149327D01*
X0213449Y0149388D01*
X0213288Y0149452D01*
X0213128Y0149521D01*
X0212970Y0149593D01*
X0212814Y0149670D01*
X0212659Y0149750D01*
X0212507Y0149834D01*
X0212357Y0149921D01*
X0212208Y0150013D01*
X0212063Y0150107D01*
X0211919Y0150206D01*
X0211778Y0150308D01*
X0211640Y0150413D01*
X0211504Y0150522D01*
X0211371Y0150634D01*
X0211241Y0150749D01*
X0211113Y0150867D01*
X0210989Y0150989D01*
X0210867Y0151113D01*
X0210749Y0151241D01*
X0210634Y0151371D01*
X0210522Y0151504D01*
X0210413Y0151640D01*
X0210308Y0151778D01*
X0210206Y0151919D01*
X0210107Y0152063D01*
X0210013Y0152208D01*
X0209921Y0152357D01*
X0209834Y0152507D01*
X0209750Y0152659D01*
X0209670Y0152814D01*
X0209593Y0152970D01*
X0209521Y0153128D01*
X0209452Y0153288D01*
X0209388Y0153449D01*
X0209327Y0153612D01*
X0209271Y0153777D01*
X0209218Y0153943D01*
X0209170Y0154110D01*
X0209125Y0154278D01*
X0209085Y0154447D01*
X0209049Y0154617D01*
X0209017Y0154788D01*
X0208990Y0154960D01*
X0208966Y0155132D01*
X0208947Y0155305D01*
X0208932Y0155479D01*
X0208922Y0155652D01*
X0208915Y0155826D01*
X0208913Y0156000D01*
D14*
X0211000Y0201000D03*
X0201000Y0201000D03*
X0191000Y0201000D03*
X0181000Y0201000D03*
X0166000Y0201000D03*
X0156000Y0201000D03*
X0146000Y0201000D03*
X0136000Y0201000D03*
X0126000Y0201000D03*
X0116000Y0201000D03*
X0106000Y0201000D03*
X0096000Y0201000D03*
X0086000Y0201000D03*
X0076000Y0201000D03*
X0221000Y0201000D03*
X0231000Y0201000D03*
X0241000Y0201000D03*
X0251000Y0201000D03*
X0251000Y0011000D03*
X0241000Y0011000D03*
X0231000Y0011000D03*
X0221000Y0011000D03*
X0211000Y0011000D03*
X0201000Y0011000D03*
X0181000Y0011000D03*
X0171000Y0011000D03*
X0161000Y0011000D03*
X0151000Y0011000D03*
X0141000Y0011000D03*
X0131000Y0011000D03*
X0121000Y0011000D03*
X0111000Y0011000D03*
D15*
X0049937Y0086866D02*
X0031827Y0086866D01*
X0029858Y0090016D01*
X0033402Y0092772D01*
X0051118Y0092772D01*
X0053480Y0090016D01*
X0049937Y0086866D01*
X0054661Y0090409D02*
X0052693Y0093165D01*
X0056236Y0112063D01*
X0058598Y0114425D01*
X0062142Y0110488D01*
X0058992Y0093559D01*
X0054661Y0090409D01*
X0033008Y0094346D02*
X0028677Y0091197D01*
X0026709Y0093953D01*
X0030252Y0112850D01*
X0032614Y0115213D01*
X0036157Y0111276D01*
X0033008Y0094346D01*
X0036551Y0112850D02*
X0034583Y0116000D01*
X0038126Y0118756D01*
X0055843Y0118756D01*
X0058205Y0116000D01*
X0054661Y0112850D01*
X0036551Y0112850D01*
X0033008Y0117181D02*
X0031039Y0119937D01*
X0034583Y0138835D01*
X0036945Y0141197D01*
X0040488Y0137260D01*
X0037339Y0120331D01*
X0033008Y0117181D01*
X0057024Y0119937D02*
X0060567Y0138835D01*
X0062929Y0141197D01*
X0066472Y0137260D01*
X0063323Y0120331D01*
X0058992Y0117181D01*
X0057024Y0119937D01*
X0058598Y0139228D02*
X0040488Y0139228D01*
X0038520Y0142378D01*
X0042063Y0145134D01*
X0059780Y0145134D01*
X0062142Y0142378D01*
X0058598Y0139228D01*
X0244500Y0123500D02*
X0244500Y0118500D01*
X0246000Y0118500D02*
X0246000Y0123500D01*
X0248500Y0126000D01*
X0253500Y0126000D01*
X0256000Y0123500D01*
X0258500Y0126000D01*
X0263500Y0126000D01*
X0266000Y0123500D01*
X0266000Y0118500D01*
X0263500Y0116000D01*
X0266000Y0113500D01*
X0266000Y0108500D01*
X0263500Y0106000D01*
X0266000Y0103500D01*
X0266000Y0098500D01*
X0263500Y0096000D01*
X0258500Y0096000D01*
X0256000Y0098500D01*
X0253500Y0096000D01*
X0248500Y0096000D01*
X0246000Y0098500D01*
X0246000Y0103500D01*
X0248500Y0106000D01*
X0246000Y0108500D01*
X0246000Y0113500D01*
X0248500Y0116000D01*
X0246000Y0118500D01*
X0251000Y0116000D02*
X0261000Y0116000D01*
X0261000Y0106000D02*
X0251000Y0106000D01*
D16*
X0141906Y0059031D02*
X0141854Y0058883D01*
X0141799Y0058736D01*
X0141740Y0058590D01*
X0141677Y0058446D01*
X0141611Y0058304D01*
X0141541Y0058163D01*
X0141468Y0058024D01*
X0141391Y0057887D01*
X0141311Y0057752D01*
X0141227Y0057619D01*
X0141140Y0057489D01*
X0141050Y0057360D01*
X0140956Y0057234D01*
X0140860Y0057110D01*
X0140760Y0056989D01*
X0140657Y0056870D01*
X0140552Y0056754D01*
X0140443Y0056640D01*
X0140332Y0056529D01*
X0140218Y0056421D01*
X0140101Y0056317D01*
X0139981Y0056215D01*
X0139859Y0056116D01*
X0139735Y0056020D01*
X0139608Y0055927D01*
X0139479Y0055838D01*
X0139347Y0055752D01*
X0139214Y0055669D01*
X0139078Y0055589D01*
X0138941Y0055513D01*
X0138802Y0055441D01*
X0138660Y0055372D01*
X0138518Y0055307D01*
X0138373Y0055245D01*
X0138227Y0055187D01*
X0138080Y0055133D01*
X0137931Y0055082D01*
X0137781Y0055035D01*
X0137630Y0054992D01*
X0137478Y0054953D01*
X0137325Y0054918D01*
X0137171Y0054886D01*
X0137016Y0054859D01*
X0136861Y0054835D01*
X0136705Y0054815D01*
X0136549Y0054799D01*
X0136392Y0054787D01*
X0136236Y0054779D01*
X0136079Y0054775D01*
X0135921Y0054775D01*
X0135764Y0054779D01*
X0135608Y0054787D01*
X0135451Y0054799D01*
X0135295Y0054815D01*
X0135139Y0054835D01*
X0134984Y0054859D01*
X0134829Y0054886D01*
X0134675Y0054918D01*
X0134522Y0054953D01*
X0134370Y0054992D01*
X0134219Y0055035D01*
X0134069Y0055082D01*
X0133920Y0055133D01*
X0133773Y0055187D01*
X0133627Y0055245D01*
X0133482Y0055307D01*
X0133340Y0055372D01*
X0133198Y0055441D01*
X0133059Y0055513D01*
X0132922Y0055589D01*
X0132786Y0055669D01*
X0132653Y0055752D01*
X0132521Y0055838D01*
X0132392Y0055927D01*
X0132265Y0056020D01*
X0132141Y0056116D01*
X0132019Y0056215D01*
X0131899Y0056317D01*
X0131782Y0056421D01*
X0131668Y0056529D01*
X0131557Y0056640D01*
X0131448Y0056754D01*
X0131343Y0056870D01*
X0131240Y0056989D01*
X0131140Y0057110D01*
X0131044Y0057234D01*
X0130950Y0057360D01*
X0130860Y0057489D01*
X0130773Y0057619D01*
X0130689Y0057752D01*
X0130609Y0057887D01*
X0130532Y0058024D01*
X0130459Y0058163D01*
X0130389Y0058304D01*
X0130323Y0058446D01*
X0130260Y0058590D01*
X0130201Y0058736D01*
X0130146Y0058883D01*
X0130094Y0059031D01*
X0130094Y0062969D02*
X0130146Y0063117D01*
X0130201Y0063264D01*
X0130260Y0063410D01*
X0130323Y0063554D01*
X0130389Y0063696D01*
X0130459Y0063837D01*
X0130532Y0063976D01*
X0130609Y0064113D01*
X0130689Y0064248D01*
X0130773Y0064381D01*
X0130860Y0064511D01*
X0130950Y0064640D01*
X0131044Y0064766D01*
X0131140Y0064890D01*
X0131240Y0065011D01*
X0131343Y0065130D01*
X0131448Y0065246D01*
X0131557Y0065360D01*
X0131668Y0065471D01*
X0131782Y0065579D01*
X0131899Y0065683D01*
X0132019Y0065785D01*
X0132141Y0065884D01*
X0132265Y0065980D01*
X0132392Y0066073D01*
X0132521Y0066162D01*
X0132653Y0066248D01*
X0132786Y0066331D01*
X0132922Y0066411D01*
X0133059Y0066487D01*
X0133198Y0066559D01*
X0133340Y0066628D01*
X0133482Y0066693D01*
X0133627Y0066755D01*
X0133773Y0066813D01*
X0133920Y0066867D01*
X0134069Y0066918D01*
X0134219Y0066965D01*
X0134370Y0067008D01*
X0134522Y0067047D01*
X0134675Y0067082D01*
X0134829Y0067114D01*
X0134984Y0067141D01*
X0135139Y0067165D01*
X0135295Y0067185D01*
X0135451Y0067201D01*
X0135608Y0067213D01*
X0135764Y0067221D01*
X0135921Y0067225D01*
X0136079Y0067225D01*
X0136236Y0067221D01*
X0136392Y0067213D01*
X0136549Y0067201D01*
X0136705Y0067185D01*
X0136861Y0067165D01*
X0137016Y0067141D01*
X0137171Y0067114D01*
X0137325Y0067082D01*
X0137478Y0067047D01*
X0137630Y0067008D01*
X0137781Y0066965D01*
X0137931Y0066918D01*
X0138080Y0066867D01*
X0138227Y0066813D01*
X0138373Y0066755D01*
X0138518Y0066693D01*
X0138660Y0066628D01*
X0138802Y0066559D01*
X0138941Y0066487D01*
X0139078Y0066411D01*
X0139214Y0066331D01*
X0139347Y0066248D01*
X0139479Y0066162D01*
X0139608Y0066073D01*
X0139735Y0065980D01*
X0139859Y0065884D01*
X0139981Y0065785D01*
X0140101Y0065683D01*
X0140218Y0065579D01*
X0140332Y0065471D01*
X0140443Y0065360D01*
X0140552Y0065246D01*
X0140657Y0065130D01*
X0140760Y0065011D01*
X0140860Y0064890D01*
X0140956Y0064766D01*
X0141050Y0064640D01*
X0141140Y0064511D01*
X0141227Y0064381D01*
X0141311Y0064248D01*
X0141391Y0064113D01*
X0141468Y0063976D01*
X0141541Y0063837D01*
X0141611Y0063696D01*
X0141677Y0063554D01*
X0141740Y0063410D01*
X0141799Y0063264D01*
X0141854Y0063117D01*
X0141906Y0062969D01*
X0141906Y0152969D02*
X0141854Y0153117D01*
X0141799Y0153264D01*
X0141740Y0153410D01*
X0141677Y0153554D01*
X0141611Y0153696D01*
X0141541Y0153837D01*
X0141468Y0153976D01*
X0141391Y0154113D01*
X0141311Y0154248D01*
X0141227Y0154381D01*
X0141140Y0154511D01*
X0141050Y0154640D01*
X0140956Y0154766D01*
X0140860Y0154890D01*
X0140760Y0155011D01*
X0140657Y0155130D01*
X0140552Y0155246D01*
X0140443Y0155360D01*
X0140332Y0155471D01*
X0140218Y0155579D01*
X0140101Y0155683D01*
X0139981Y0155785D01*
X0139859Y0155884D01*
X0139735Y0155980D01*
X0139608Y0156073D01*
X0139479Y0156162D01*
X0139347Y0156248D01*
X0139214Y0156331D01*
X0139078Y0156411D01*
X0138941Y0156487D01*
X0138802Y0156559D01*
X0138660Y0156628D01*
X0138518Y0156693D01*
X0138373Y0156755D01*
X0138227Y0156813D01*
X0138080Y0156867D01*
X0137931Y0156918D01*
X0137781Y0156965D01*
X0137630Y0157008D01*
X0137478Y0157047D01*
X0137325Y0157082D01*
X0137171Y0157114D01*
X0137016Y0157141D01*
X0136861Y0157165D01*
X0136705Y0157185D01*
X0136549Y0157201D01*
X0136392Y0157213D01*
X0136236Y0157221D01*
X0136079Y0157225D01*
X0135921Y0157225D01*
X0135764Y0157221D01*
X0135608Y0157213D01*
X0135451Y0157201D01*
X0135295Y0157185D01*
X0135139Y0157165D01*
X0134984Y0157141D01*
X0134829Y0157114D01*
X0134675Y0157082D01*
X0134522Y0157047D01*
X0134370Y0157008D01*
X0134219Y0156965D01*
X0134069Y0156918D01*
X0133920Y0156867D01*
X0133773Y0156813D01*
X0133627Y0156755D01*
X0133482Y0156693D01*
X0133340Y0156628D01*
X0133198Y0156559D01*
X0133059Y0156487D01*
X0132922Y0156411D01*
X0132786Y0156331D01*
X0132653Y0156248D01*
X0132521Y0156162D01*
X0132392Y0156073D01*
X0132265Y0155980D01*
X0132141Y0155884D01*
X0132019Y0155785D01*
X0131899Y0155683D01*
X0131782Y0155579D01*
X0131668Y0155471D01*
X0131557Y0155360D01*
X0131448Y0155246D01*
X0131343Y0155130D01*
X0131240Y0155011D01*
X0131140Y0154890D01*
X0131044Y0154766D01*
X0130950Y0154640D01*
X0130860Y0154511D01*
X0130773Y0154381D01*
X0130689Y0154248D01*
X0130609Y0154113D01*
X0130532Y0153976D01*
X0130459Y0153837D01*
X0130389Y0153696D01*
X0130323Y0153554D01*
X0130260Y0153410D01*
X0130201Y0153264D01*
X0130146Y0153117D01*
X0130094Y0152969D01*
X0130094Y0149031D02*
X0130146Y0148883D01*
X0130201Y0148736D01*
X0130260Y0148590D01*
X0130323Y0148446D01*
X0130389Y0148304D01*
X0130459Y0148163D01*
X0130532Y0148024D01*
X0130609Y0147887D01*
X0130689Y0147752D01*
X0130773Y0147619D01*
X0130860Y0147489D01*
X0130950Y0147360D01*
X0131044Y0147234D01*
X0131140Y0147110D01*
X0131240Y0146989D01*
X0131343Y0146870D01*
X0131448Y0146754D01*
X0131557Y0146640D01*
X0131668Y0146529D01*
X0131782Y0146421D01*
X0131899Y0146317D01*
X0132019Y0146215D01*
X0132141Y0146116D01*
X0132265Y0146020D01*
X0132392Y0145927D01*
X0132521Y0145838D01*
X0132653Y0145752D01*
X0132786Y0145669D01*
X0132922Y0145589D01*
X0133059Y0145513D01*
X0133198Y0145441D01*
X0133340Y0145372D01*
X0133482Y0145307D01*
X0133627Y0145245D01*
X0133773Y0145187D01*
X0133920Y0145133D01*
X0134069Y0145082D01*
X0134219Y0145035D01*
X0134370Y0144992D01*
X0134522Y0144953D01*
X0134675Y0144918D01*
X0134829Y0144886D01*
X0134984Y0144859D01*
X0135139Y0144835D01*
X0135295Y0144815D01*
X0135451Y0144799D01*
X0135608Y0144787D01*
X0135764Y0144779D01*
X0135921Y0144775D01*
X0136079Y0144775D01*
X0136236Y0144779D01*
X0136392Y0144787D01*
X0136549Y0144799D01*
X0136705Y0144815D01*
X0136861Y0144835D01*
X0137016Y0144859D01*
X0137171Y0144886D01*
X0137325Y0144918D01*
X0137478Y0144953D01*
X0137630Y0144992D01*
X0137781Y0145035D01*
X0137931Y0145082D01*
X0138080Y0145133D01*
X0138227Y0145187D01*
X0138373Y0145245D01*
X0138518Y0145307D01*
X0138660Y0145372D01*
X0138802Y0145441D01*
X0138941Y0145513D01*
X0139078Y0145589D01*
X0139214Y0145669D01*
X0139347Y0145752D01*
X0139479Y0145838D01*
X0139608Y0145927D01*
X0139735Y0146020D01*
X0139859Y0146116D01*
X0139981Y0146215D01*
X0140101Y0146317D01*
X0140218Y0146421D01*
X0140332Y0146529D01*
X0140443Y0146640D01*
X0140552Y0146754D01*
X0140657Y0146870D01*
X0140760Y0146989D01*
X0140860Y0147110D01*
X0140956Y0147234D01*
X0141050Y0147360D01*
X0141140Y0147489D01*
X0141227Y0147619D01*
X0141311Y0147752D01*
X0141391Y0147887D01*
X0141468Y0148024D01*
X0141541Y0148163D01*
X0141611Y0148304D01*
X0141677Y0148446D01*
X0141740Y0148590D01*
X0141799Y0148736D01*
X0141854Y0148883D01*
X0141906Y0149031D01*
D17*
X0144268Y0134858D02*
X0143874Y0134662D01*
X0143475Y0134476D01*
X0143071Y0134299D01*
X0142664Y0134133D01*
X0142253Y0133976D01*
X0141838Y0133829D01*
X0141419Y0133693D01*
X0140997Y0133566D01*
X0140573Y0133450D01*
X0140145Y0133344D01*
X0139716Y0133249D01*
X0139284Y0133164D01*
X0138850Y0133089D01*
X0138414Y0133025D01*
X0137977Y0132972D01*
X0137539Y0132929D01*
X0137100Y0132897D01*
X0136660Y0132876D01*
X0136220Y0132865D01*
X0135780Y0132865D01*
X0135340Y0132876D01*
X0134900Y0132897D01*
X0134461Y0132929D01*
X0134023Y0132972D01*
X0133586Y0133025D01*
X0133150Y0133089D01*
X0132716Y0133164D01*
X0132284Y0133249D01*
X0131855Y0133344D01*
X0131427Y0133450D01*
X0131003Y0133566D01*
X0130581Y0133693D01*
X0130162Y0133829D01*
X0129747Y0133976D01*
X0129336Y0134133D01*
X0128929Y0134299D01*
X0128525Y0134476D01*
X0128126Y0134662D01*
X0127732Y0134858D01*
X0118000Y0147000D02*
X0114500Y0147000D01*
X0114500Y0155000D01*
X0118000Y0155000D01*
X0144268Y0167142D02*
X0144653Y0166939D01*
X0145033Y0166726D01*
X0145408Y0166505D01*
X0145777Y0166275D01*
X0146141Y0166036D01*
X0146499Y0165788D01*
X0146851Y0165532D01*
X0147196Y0165267D01*
X0147536Y0164994D01*
X0147868Y0164714D01*
X0148194Y0164425D01*
X0148513Y0164128D01*
X0148824Y0163824D01*
X0149128Y0163513D01*
X0149425Y0163194D01*
X0149714Y0162868D01*
X0149994Y0162536D01*
X0150267Y0162196D01*
X0150532Y0161851D01*
X0150788Y0161499D01*
X0151036Y0161141D01*
X0151275Y0160777D01*
X0151505Y0160408D01*
X0151726Y0160033D01*
X0151939Y0159653D01*
X0152142Y0159268D01*
X0154000Y0155000D02*
X0157500Y0155000D01*
X0157500Y0147000D01*
X0154000Y0147000D01*
X0127732Y0167142D02*
X0127347Y0166939D01*
X0126967Y0166726D01*
X0126592Y0166505D01*
X0126223Y0166275D01*
X0125859Y0166036D01*
X0125501Y0165788D01*
X0125149Y0165532D01*
X0124804Y0165267D01*
X0124464Y0164994D01*
X0124132Y0164714D01*
X0123806Y0164425D01*
X0123487Y0164128D01*
X0123176Y0163824D01*
X0122872Y0163513D01*
X0122575Y0163194D01*
X0122286Y0162868D01*
X0122006Y0162536D01*
X0121733Y0162196D01*
X0121468Y0161851D01*
X0121212Y0161499D01*
X0120964Y0161141D01*
X0120725Y0160777D01*
X0120495Y0160408D01*
X0120274Y0160033D01*
X0120061Y0159653D01*
X0119858Y0159268D01*
X0144268Y0134858D02*
X0144653Y0135061D01*
X0145033Y0135274D01*
X0145408Y0135495D01*
X0145777Y0135725D01*
X0146141Y0135964D01*
X0146499Y0136212D01*
X0146851Y0136468D01*
X0147196Y0136733D01*
X0147536Y0137006D01*
X0147868Y0137286D01*
X0148194Y0137575D01*
X0148513Y0137872D01*
X0148824Y0138176D01*
X0149128Y0138487D01*
X0149425Y0138806D01*
X0149714Y0139132D01*
X0149994Y0139464D01*
X0150267Y0139804D01*
X0150532Y0140149D01*
X0150788Y0140501D01*
X0151036Y0140859D01*
X0151275Y0141223D01*
X0151505Y0141592D01*
X0151726Y0141967D01*
X0151939Y0142347D01*
X0152142Y0142732D01*
X0144268Y0167142D02*
X0143874Y0167338D01*
X0143475Y0167524D01*
X0143071Y0167701D01*
X0142664Y0167867D01*
X0142253Y0168024D01*
X0141838Y0168171D01*
X0141419Y0168307D01*
X0140997Y0168434D01*
X0140573Y0168550D01*
X0140145Y0168656D01*
X0139716Y0168751D01*
X0139284Y0168836D01*
X0138850Y0168911D01*
X0138414Y0168975D01*
X0137977Y0169028D01*
X0137539Y0169071D01*
X0137100Y0169103D01*
X0136660Y0169124D01*
X0136220Y0169135D01*
X0135780Y0169135D01*
X0135340Y0169124D01*
X0134900Y0169103D01*
X0134461Y0169071D01*
X0134023Y0169028D01*
X0133586Y0168975D01*
X0133150Y0168911D01*
X0132716Y0168836D01*
X0132284Y0168751D01*
X0131855Y0168656D01*
X0131427Y0168550D01*
X0131003Y0168434D01*
X0130581Y0168307D01*
X0130162Y0168171D01*
X0129747Y0168024D01*
X0129336Y0167867D01*
X0128929Y0167701D01*
X0128525Y0167524D01*
X0128126Y0167338D01*
X0127732Y0167142D01*
X0152142Y0159268D02*
X0152338Y0158874D01*
X0152524Y0158475D01*
X0152701Y0158071D01*
X0152867Y0157664D01*
X0153024Y0157253D01*
X0153171Y0156838D01*
X0153307Y0156419D01*
X0153434Y0155997D01*
X0153550Y0155573D01*
X0153656Y0155145D01*
X0153751Y0154716D01*
X0153836Y0154284D01*
X0153911Y0153850D01*
X0153975Y0153414D01*
X0154028Y0152977D01*
X0154071Y0152539D01*
X0154103Y0152100D01*
X0154124Y0151660D01*
X0154135Y0151220D01*
X0154135Y0150780D01*
X0154124Y0150340D01*
X0154103Y0149900D01*
X0154071Y0149461D01*
X0154028Y0149023D01*
X0153975Y0148586D01*
X0153911Y0148150D01*
X0153836Y0147716D01*
X0153751Y0147284D01*
X0153656Y0146855D01*
X0153550Y0146427D01*
X0153434Y0146003D01*
X0153307Y0145581D01*
X0153171Y0145162D01*
X0153024Y0144747D01*
X0152867Y0144336D01*
X0152701Y0143929D01*
X0152524Y0143525D01*
X0152338Y0143126D01*
X0152142Y0142732D01*
X0127732Y0134858D02*
X0127347Y0135061D01*
X0126967Y0135274D01*
X0126592Y0135495D01*
X0126223Y0135725D01*
X0125859Y0135964D01*
X0125501Y0136212D01*
X0125149Y0136468D01*
X0124804Y0136733D01*
X0124464Y0137006D01*
X0124132Y0137286D01*
X0123806Y0137575D01*
X0123487Y0137872D01*
X0123176Y0138176D01*
X0122872Y0138487D01*
X0122575Y0138806D01*
X0122286Y0139132D01*
X0122006Y0139464D01*
X0121733Y0139804D01*
X0121468Y0140149D01*
X0121212Y0140501D01*
X0120964Y0140859D01*
X0120725Y0141223D01*
X0120495Y0141592D01*
X0120274Y0141967D01*
X0120061Y0142347D01*
X0119858Y0142732D01*
X0119662Y0143126D01*
X0119476Y0143525D01*
X0119299Y0143929D01*
X0119133Y0144336D01*
X0118976Y0144747D01*
X0118829Y0145162D01*
X0118693Y0145581D01*
X0118566Y0146003D01*
X0118450Y0146427D01*
X0118344Y0146855D01*
X0118249Y0147284D01*
X0118164Y0147716D01*
X0118089Y0148150D01*
X0118025Y0148586D01*
X0117972Y0149023D01*
X0117929Y0149461D01*
X0117897Y0149900D01*
X0117876Y0150340D01*
X0117865Y0150780D01*
X0117865Y0151220D01*
X0117876Y0151660D01*
X0117897Y0152100D01*
X0117929Y0152539D01*
X0117972Y0152977D01*
X0118025Y0153414D01*
X0118089Y0153850D01*
X0118164Y0154284D01*
X0118249Y0154716D01*
X0118344Y0155145D01*
X0118450Y0155573D01*
X0118566Y0155997D01*
X0118693Y0156419D01*
X0118829Y0156838D01*
X0118976Y0157253D01*
X0119133Y0157664D01*
X0119299Y0158071D01*
X0119476Y0158475D01*
X0119662Y0158874D01*
X0119858Y0159268D01*
X0081433Y0165213D02*
X0081433Y0072693D01*
X0075528Y0066787D01*
X0010567Y0066787D01*
X0010567Y0165213D01*
X0081433Y0165213D01*
X0114500Y0065000D02*
X0114500Y0057000D01*
X0118000Y0057000D01*
X0118000Y0065000D02*
X0114500Y0065000D01*
X0144268Y0077142D02*
X0144653Y0076939D01*
X0145033Y0076726D01*
X0145408Y0076505D01*
X0145777Y0076275D01*
X0146141Y0076036D01*
X0146499Y0075788D01*
X0146851Y0075532D01*
X0147196Y0075267D01*
X0147536Y0074994D01*
X0147868Y0074714D01*
X0148194Y0074425D01*
X0148513Y0074128D01*
X0148824Y0073824D01*
X0149128Y0073513D01*
X0149425Y0073194D01*
X0149714Y0072868D01*
X0149994Y0072536D01*
X0150267Y0072196D01*
X0150532Y0071851D01*
X0150788Y0071499D01*
X0151036Y0071141D01*
X0151275Y0070777D01*
X0151505Y0070408D01*
X0151726Y0070033D01*
X0151939Y0069653D01*
X0152142Y0069268D01*
X0154000Y0065000D02*
X0157500Y0065000D01*
X0157500Y0057000D01*
X0154000Y0057000D01*
X0144268Y0044858D02*
X0143874Y0044662D01*
X0143475Y0044476D01*
X0143071Y0044299D01*
X0142664Y0044133D01*
X0142253Y0043976D01*
X0141838Y0043829D01*
X0141419Y0043693D01*
X0140997Y0043566D01*
X0140573Y0043450D01*
X0140145Y0043344D01*
X0139716Y0043249D01*
X0139284Y0043164D01*
X0138850Y0043089D01*
X0138414Y0043025D01*
X0137977Y0042972D01*
X0137539Y0042929D01*
X0137100Y0042897D01*
X0136660Y0042876D01*
X0136220Y0042865D01*
X0135780Y0042865D01*
X0135340Y0042876D01*
X0134900Y0042897D01*
X0134461Y0042929D01*
X0134023Y0042972D01*
X0133586Y0043025D01*
X0133150Y0043089D01*
X0132716Y0043164D01*
X0132284Y0043249D01*
X0131855Y0043344D01*
X0131427Y0043450D01*
X0131003Y0043566D01*
X0130581Y0043693D01*
X0130162Y0043829D01*
X0129747Y0043976D01*
X0129336Y0044133D01*
X0128929Y0044299D01*
X0128525Y0044476D01*
X0128126Y0044662D01*
X0127732Y0044858D01*
X0119858Y0069268D02*
X0120061Y0069653D01*
X0120274Y0070033D01*
X0120495Y0070408D01*
X0120725Y0070777D01*
X0120964Y0071141D01*
X0121212Y0071499D01*
X0121468Y0071851D01*
X0121733Y0072196D01*
X0122006Y0072536D01*
X0122286Y0072868D01*
X0122575Y0073194D01*
X0122872Y0073513D01*
X0123176Y0073824D01*
X0123487Y0074128D01*
X0123806Y0074425D01*
X0124132Y0074714D01*
X0124464Y0074994D01*
X0124804Y0075267D01*
X0125149Y0075532D01*
X0125501Y0075788D01*
X0125859Y0076036D01*
X0126223Y0076275D01*
X0126592Y0076505D01*
X0126967Y0076726D01*
X0127347Y0076939D01*
X0127732Y0077142D01*
X0128126Y0077338D01*
X0128525Y0077524D01*
X0128929Y0077701D01*
X0129336Y0077867D01*
X0129747Y0078024D01*
X0130162Y0078171D01*
X0130581Y0078307D01*
X0131003Y0078434D01*
X0131427Y0078550D01*
X0131855Y0078656D01*
X0132284Y0078751D01*
X0132716Y0078836D01*
X0133150Y0078911D01*
X0133586Y0078975D01*
X0134023Y0079028D01*
X0134461Y0079071D01*
X0134900Y0079103D01*
X0135340Y0079124D01*
X0135780Y0079135D01*
X0136220Y0079135D01*
X0136660Y0079124D01*
X0137100Y0079103D01*
X0137539Y0079071D01*
X0137977Y0079028D01*
X0138414Y0078975D01*
X0138850Y0078911D01*
X0139284Y0078836D01*
X0139716Y0078751D01*
X0140145Y0078656D01*
X0140573Y0078550D01*
X0140997Y0078434D01*
X0141419Y0078307D01*
X0141838Y0078171D01*
X0142253Y0078024D01*
X0142664Y0077867D01*
X0143071Y0077701D01*
X0143475Y0077524D01*
X0143874Y0077338D01*
X0144268Y0077142D01*
X0152142Y0069268D02*
X0152338Y0068874D01*
X0152524Y0068475D01*
X0152701Y0068071D01*
X0152867Y0067664D01*
X0153024Y0067253D01*
X0153171Y0066838D01*
X0153307Y0066419D01*
X0153434Y0065997D01*
X0153550Y0065573D01*
X0153656Y0065145D01*
X0153751Y0064716D01*
X0153836Y0064284D01*
X0153911Y0063850D01*
X0153975Y0063414D01*
X0154028Y0062977D01*
X0154071Y0062539D01*
X0154103Y0062100D01*
X0154124Y0061660D01*
X0154135Y0061220D01*
X0154135Y0060780D01*
X0154124Y0060340D01*
X0154103Y0059900D01*
X0154071Y0059461D01*
X0154028Y0059023D01*
X0153975Y0058586D01*
X0153911Y0058150D01*
X0153836Y0057716D01*
X0153751Y0057284D01*
X0153656Y0056855D01*
X0153550Y0056427D01*
X0153434Y0056003D01*
X0153307Y0055581D01*
X0153171Y0055162D01*
X0153024Y0054747D01*
X0152867Y0054336D01*
X0152701Y0053929D01*
X0152524Y0053525D01*
X0152338Y0053126D01*
X0152142Y0052732D01*
X0127732Y0044858D02*
X0127347Y0045061D01*
X0126967Y0045274D01*
X0126592Y0045495D01*
X0126223Y0045725D01*
X0125859Y0045964D01*
X0125501Y0046212D01*
X0125149Y0046468D01*
X0124804Y0046733D01*
X0124464Y0047006D01*
X0124132Y0047286D01*
X0123806Y0047575D01*
X0123487Y0047872D01*
X0123176Y0048176D01*
X0122872Y0048487D01*
X0122575Y0048806D01*
X0122286Y0049132D01*
X0122006Y0049464D01*
X0121733Y0049804D01*
X0121468Y0050149D01*
X0121212Y0050501D01*
X0120964Y0050859D01*
X0120725Y0051223D01*
X0120495Y0051592D01*
X0120274Y0051967D01*
X0120061Y0052347D01*
X0119858Y0052732D01*
X0144268Y0044858D02*
X0144653Y0045061D01*
X0145033Y0045274D01*
X0145408Y0045495D01*
X0145777Y0045725D01*
X0146141Y0045964D01*
X0146499Y0046212D01*
X0146851Y0046468D01*
X0147196Y0046733D01*
X0147536Y0047006D01*
X0147868Y0047286D01*
X0148194Y0047575D01*
X0148513Y0047872D01*
X0148824Y0048176D01*
X0149128Y0048487D01*
X0149425Y0048806D01*
X0149714Y0049132D01*
X0149994Y0049464D01*
X0150267Y0049804D01*
X0150532Y0050149D01*
X0150788Y0050501D01*
X0151036Y0050859D01*
X0151275Y0051223D01*
X0151505Y0051592D01*
X0151726Y0051967D01*
X0151939Y0052347D01*
X0152142Y0052732D01*
X0119858Y0052732D02*
X0119662Y0053126D01*
X0119476Y0053525D01*
X0119299Y0053929D01*
X0119133Y0054336D01*
X0118976Y0054747D01*
X0118829Y0055162D01*
X0118693Y0055581D01*
X0118566Y0056003D01*
X0118450Y0056427D01*
X0118344Y0056855D01*
X0118249Y0057284D01*
X0118164Y0057716D01*
X0118089Y0058150D01*
X0118025Y0058586D01*
X0117972Y0059023D01*
X0117929Y0059461D01*
X0117897Y0059900D01*
X0117876Y0060340D01*
X0117865Y0060780D01*
X0117865Y0061220D01*
X0117876Y0061660D01*
X0117897Y0062100D01*
X0117929Y0062539D01*
X0117972Y0062977D01*
X0118025Y0063414D01*
X0118089Y0063850D01*
X0118164Y0064284D01*
X0118249Y0064716D01*
X0118344Y0065145D01*
X0118450Y0065573D01*
X0118566Y0065997D01*
X0118693Y0066419D01*
X0118829Y0066838D01*
X0118976Y0067253D01*
X0119133Y0067664D01*
X0119299Y0068071D01*
X0119476Y0068475D01*
X0119662Y0068874D01*
X0119858Y0069268D01*
D18*
X0131100Y0053302D02*
X0132201Y0053302D01*
X0132568Y0052935D01*
X0132568Y0052568D01*
X0132201Y0052201D01*
X0131100Y0052201D01*
X0131100Y0051100D02*
X0131100Y0053302D01*
X0132201Y0052201D02*
X0132568Y0051834D01*
X0132568Y0051467D01*
X0132201Y0051100D01*
X0131100Y0051100D01*
X0133310Y0051467D02*
X0133677Y0051100D01*
X0134411Y0051100D01*
X0134778Y0051467D01*
X0134778Y0051834D01*
X0134411Y0052201D01*
X0134044Y0052201D01*
X0134411Y0052201D02*
X0134778Y0052568D01*
X0134778Y0052935D01*
X0134411Y0053302D01*
X0133677Y0053302D01*
X0133310Y0052935D01*
X0135520Y0053302D02*
X0135520Y0052201D01*
X0136254Y0052568D01*
X0136621Y0052568D01*
X0136988Y0052201D01*
X0136988Y0051467D01*
X0136621Y0051100D01*
X0135887Y0051100D01*
X0135520Y0051467D01*
X0135520Y0053302D02*
X0136988Y0053302D01*
X0139940Y0053302D02*
X0141407Y0051100D01*
X0141407Y0053302D01*
X0142149Y0052201D02*
X0142149Y0051467D01*
X0142516Y0051100D01*
X0143250Y0051100D01*
X0143617Y0051467D01*
X0143617Y0051834D01*
X0143250Y0052201D01*
X0142149Y0052201D01*
X0142883Y0052935D01*
X0143617Y0053302D01*
X0144359Y0052568D02*
X0145093Y0053302D01*
X0145093Y0051100D01*
X0144359Y0051100D02*
X0145827Y0051100D01*
X0139940Y0051100D02*
X0139940Y0053302D01*
X0139940Y0141100D02*
X0139940Y0143302D01*
X0141407Y0141100D01*
X0141407Y0143302D01*
X0142149Y0142201D02*
X0143250Y0142201D01*
X0143617Y0141834D01*
X0143617Y0141467D01*
X0143250Y0141100D01*
X0142516Y0141100D01*
X0142149Y0141467D01*
X0142149Y0142201D01*
X0142883Y0142935D01*
X0143617Y0143302D01*
X0144359Y0142568D02*
X0145093Y0143302D01*
X0145093Y0141100D01*
X0144359Y0141100D02*
X0145827Y0141100D01*
X0136988Y0141467D02*
X0136621Y0141100D01*
X0135887Y0141100D01*
X0135520Y0141467D01*
X0135520Y0142201D02*
X0136254Y0142568D01*
X0136621Y0142568D01*
X0136988Y0142201D01*
X0136988Y0141467D01*
X0135520Y0142201D02*
X0135520Y0143302D01*
X0136988Y0143302D01*
X0134778Y0142935D02*
X0134778Y0142568D01*
X0134411Y0142201D01*
X0134778Y0141834D01*
X0134778Y0141467D01*
X0134411Y0141100D01*
X0133677Y0141100D01*
X0133310Y0141467D01*
X0132568Y0141467D02*
X0132201Y0141100D01*
X0131100Y0141100D01*
X0131100Y0143302D01*
X0132201Y0143302D01*
X0132568Y0142935D01*
X0132568Y0142568D01*
X0132201Y0142201D01*
X0131100Y0142201D01*
X0132201Y0142201D02*
X0132568Y0141834D01*
X0132568Y0141467D01*
X0133310Y0142935D02*
X0133677Y0143302D01*
X0134411Y0143302D01*
X0134778Y0142935D01*
X0134411Y0142201D02*
X0134044Y0142201D01*
D19*
X0214819Y0156000D02*
X0214821Y0156069D01*
X0214827Y0156137D01*
X0214837Y0156205D01*
X0214851Y0156272D01*
X0214869Y0156339D01*
X0214890Y0156404D01*
X0214916Y0156468D01*
X0214945Y0156530D01*
X0214977Y0156590D01*
X0215013Y0156649D01*
X0215053Y0156705D01*
X0215095Y0156759D01*
X0215141Y0156810D01*
X0215190Y0156859D01*
X0215241Y0156905D01*
X0215295Y0156947D01*
X0215351Y0156987D01*
X0215409Y0157023D01*
X0215470Y0157055D01*
X0215532Y0157084D01*
X0215596Y0157110D01*
X0215661Y0157131D01*
X0215728Y0157149D01*
X0215795Y0157163D01*
X0215863Y0157173D01*
X0215931Y0157179D01*
X0216000Y0157181D01*
X0216069Y0157179D01*
X0216137Y0157173D01*
X0216205Y0157163D01*
X0216272Y0157149D01*
X0216339Y0157131D01*
X0216404Y0157110D01*
X0216468Y0157084D01*
X0216530Y0157055D01*
X0216590Y0157023D01*
X0216649Y0156987D01*
X0216705Y0156947D01*
X0216759Y0156905D01*
X0216810Y0156859D01*
X0216859Y0156810D01*
X0216905Y0156759D01*
X0216947Y0156705D01*
X0216987Y0156649D01*
X0217023Y0156590D01*
X0217055Y0156530D01*
X0217084Y0156468D01*
X0217110Y0156404D01*
X0217131Y0156339D01*
X0217149Y0156272D01*
X0217163Y0156205D01*
X0217173Y0156137D01*
X0217179Y0156069D01*
X0217181Y0156000D01*
X0217179Y0155931D01*
X0217173Y0155863D01*
X0217163Y0155795D01*
X0217149Y0155728D01*
X0217131Y0155661D01*
X0217110Y0155596D01*
X0217084Y0155532D01*
X0217055Y0155470D01*
X0217023Y0155409D01*
X0216987Y0155351D01*
X0216947Y0155295D01*
X0216905Y0155241D01*
X0216859Y0155190D01*
X0216810Y0155141D01*
X0216759Y0155095D01*
X0216705Y0155053D01*
X0216649Y0155013D01*
X0216591Y0154977D01*
X0216530Y0154945D01*
X0216468Y0154916D01*
X0216404Y0154890D01*
X0216339Y0154869D01*
X0216272Y0154851D01*
X0216205Y0154837D01*
X0216137Y0154827D01*
X0216069Y0154821D01*
X0216000Y0154819D01*
X0215931Y0154821D01*
X0215863Y0154827D01*
X0215795Y0154837D01*
X0215728Y0154851D01*
X0215661Y0154869D01*
X0215596Y0154890D01*
X0215532Y0154916D01*
X0215470Y0154945D01*
X0215409Y0154977D01*
X0215351Y0155013D01*
X0215295Y0155053D01*
X0215241Y0155095D01*
X0215190Y0155141D01*
X0215141Y0155190D01*
X0215095Y0155241D01*
X0215053Y0155295D01*
X0215013Y0155351D01*
X0214977Y0155409D01*
X0214945Y0155470D01*
X0214916Y0155532D01*
X0214890Y0155596D01*
X0214869Y0155661D01*
X0214851Y0155728D01*
X0214837Y0155795D01*
X0214827Y0155863D01*
X0214821Y0155931D01*
X0214819Y0156000D01*
X0214819Y0056000D02*
X0214821Y0056069D01*
X0214827Y0056137D01*
X0214837Y0056205D01*
X0214851Y0056272D01*
X0214869Y0056339D01*
X0214890Y0056404D01*
X0214916Y0056468D01*
X0214945Y0056530D01*
X0214977Y0056590D01*
X0215013Y0056649D01*
X0215053Y0056705D01*
X0215095Y0056759D01*
X0215141Y0056810D01*
X0215190Y0056859D01*
X0215241Y0056905D01*
X0215295Y0056947D01*
X0215351Y0056987D01*
X0215409Y0057023D01*
X0215470Y0057055D01*
X0215532Y0057084D01*
X0215596Y0057110D01*
X0215661Y0057131D01*
X0215728Y0057149D01*
X0215795Y0057163D01*
X0215863Y0057173D01*
X0215931Y0057179D01*
X0216000Y0057181D01*
X0216069Y0057179D01*
X0216137Y0057173D01*
X0216205Y0057163D01*
X0216272Y0057149D01*
X0216339Y0057131D01*
X0216404Y0057110D01*
X0216468Y0057084D01*
X0216530Y0057055D01*
X0216590Y0057023D01*
X0216649Y0056987D01*
X0216705Y0056947D01*
X0216759Y0056905D01*
X0216810Y0056859D01*
X0216859Y0056810D01*
X0216905Y0056759D01*
X0216947Y0056705D01*
X0216987Y0056649D01*
X0217023Y0056590D01*
X0217055Y0056530D01*
X0217084Y0056468D01*
X0217110Y0056404D01*
X0217131Y0056339D01*
X0217149Y0056272D01*
X0217163Y0056205D01*
X0217173Y0056137D01*
X0217179Y0056069D01*
X0217181Y0056000D01*
X0217179Y0055931D01*
X0217173Y0055863D01*
X0217163Y0055795D01*
X0217149Y0055728D01*
X0217131Y0055661D01*
X0217110Y0055596D01*
X0217084Y0055532D01*
X0217055Y0055470D01*
X0217023Y0055409D01*
X0216987Y0055351D01*
X0216947Y0055295D01*
X0216905Y0055241D01*
X0216859Y0055190D01*
X0216810Y0055141D01*
X0216759Y0055095D01*
X0216705Y0055053D01*
X0216649Y0055013D01*
X0216591Y0054977D01*
X0216530Y0054945D01*
X0216468Y0054916D01*
X0216404Y0054890D01*
X0216339Y0054869D01*
X0216272Y0054851D01*
X0216205Y0054837D01*
X0216137Y0054827D01*
X0216069Y0054821D01*
X0216000Y0054819D01*
X0215931Y0054821D01*
X0215863Y0054827D01*
X0215795Y0054837D01*
X0215728Y0054851D01*
X0215661Y0054869D01*
X0215596Y0054890D01*
X0215532Y0054916D01*
X0215470Y0054945D01*
X0215409Y0054977D01*
X0215351Y0055013D01*
X0215295Y0055053D01*
X0215241Y0055095D01*
X0215190Y0055141D01*
X0215141Y0055190D01*
X0215095Y0055241D01*
X0215053Y0055295D01*
X0215013Y0055351D01*
X0214977Y0055409D01*
X0214945Y0055470D01*
X0214916Y0055532D01*
X0214890Y0055596D01*
X0214869Y0055661D01*
X0214851Y0055728D01*
X0214837Y0055795D01*
X0214827Y0055863D01*
X0214821Y0055931D01*
X0214819Y0056000D01*
M02*
